<svg xmlns="http://www.w3.org/2000/svg" width="1200" height="630" viewBox="0 0 1200 630">
  <defs>
    <linearGradient id="bg" x1="0%" y1="0%" x2="100%" y2="100%">
      <stop offset="0%" style="stop-color:#0f172a"/>
      <stop offset="100%" style="stop-color:#1e293b"/>
    </linearGradient>
    <linearGradient id="accent" x1="0%" y1="0%" x2="100%" y2="0%">
      <stop offset="0%" style="stop-color:#3b82f6"/>
      <stop offset="100%" style="stop-color:#6366f1"/>
    </linearGradient>
  </defs>
  <rect width="1200" height="630" fill="url(#bg)"/>
  <!-- Grid pattern -->
  <g opacity="0.04" stroke="#fff" stroke-width="0.5">
    <line x1="0" y1="0" x2="0" y2="630"/><line x1="42" y1="0" x2="42" y2="630"/><line x1="84" y1="0" x2="84" y2="630"/><line x1="126" y1="0" x2="126" y2="630"/><line x1="168" y1="0" x2="168" y2="630"/><line x1="210" y1="0" x2="210" y2="630"/><line x1="252" y1="0" x2="252" y2="630"/><line x1="294" y1="0" x2="294" y2="630"/><line x1="336" y1="0" x2="336" y2="630"/><line x1="378" y1="0" x2="378" y2="630"/><line x1="420" y1="0" x2="420" y2="630"/><line x1="462" y1="0" x2="462" y2="630"/><line x1="504" y1="0" x2="504" y2="630"/><line x1="546" y1="0" x2="546" y2="630"/><line x1="588" y1="0" x2="588" y2="630"/><line x1="630" y1="0" x2="630" y2="630"/><line x1="672" y1="0" x2="672" y2="630"/><line x1="714" y1="0" x2="714" y2="630"/><line x1="756" y1="0" x2="756" y2="630"/><line x1="798" y1="0" x2="798" y2="630"/><line x1="840" y1="0" x2="840" y2="630"/><line x1="882" y1="0" x2="882" y2="630"/><line x1="924" y1="0" x2="924" y2="630"/><line x1="966" y1="0" x2="966" y2="630"/><line x1="1008" y1="0" x2="1008" y2="630"/><line x1="1050" y1="0" x2="1050" y2="630"/><line x1="1092" y1="0" x2="1092" y2="630"/><line x1="1134" y1="0" x2="1134" y2="630"/><line x1="1176" y1="0" x2="1176" y2="630"/><line x1="1218" y1="0" x2="1218" y2="630"/>
    <line x1="0" y1="0" x2="1200" y2="0"/><line x1="0" y1="42" x2="1200" y2="42"/><line x1="0" y1="84" x2="1200" y2="84"/><line x1="0" y1="126" x2="1200" y2="126"/><line x1="0" y1="168" x2="1200" y2="168"/><line x1="0" y1="210" x2="1200" y2="210"/><line x1="0" y1="252" x2="1200" y2="252"/><line x1="0" y1="294" x2="1200" y2="294"/><line x1="0" y1="336" x2="1200" y2="336"/><line x1="0" y1="378" x2="1200" y2="378"/><line x1="0" y1="420" x2="1200" y2="420"/><line x1="0" y1="462" x2="1200" y2="462"/><line x1="0" y1="504" x2="1200" y2="504"/><line x1="0" y1="546" x2="1200" y2="546"/><line x1="0" y1="588" x2="1200" y2="588"/><line x1="0" y1="630" x2="1200" y2="630"/>
  </g>
  <!-- Accent bar -->
  <rect x="0" y="0" width="6" height="630" fill="url(#accent)"/>
  <!-- Title -->
  <text x="80" y="145" font-family="Helvetica Neue, Arial, sans-serif" font-size="52" font-weight="700" fill="#ffffff">Workload-Portfolio</text>
  <!-- Subtitle -->
  <text x="80" y="190" font-family="Helvetica Neue, Arial, sans-serif" font-size="22" fill="#94a3b8">Live KPIs · Commit Calendar · Uptime Monitor · Tech Stack</text>
  <!-- Divider -->
  <rect x="80" y="220" width="120" height="3" rx="1.5" fill="#3b82f6"/>
  <!-- KPIs -->
  <g font-family="Helvetica Neue, Arial, sans-serif" fill="#ffffff">
    <text x="80" y="290" font-size="44" font-weight="700">GitHub</text>
    <text x="80" y="315" font-size="14" fill="#64748b">Commit Activity</text>
    <text x="300" y="290" font-size="44" font-weight="700">Vercel</text>
    <text x="300" y="315" font-size="14" fill="#64748b">Deploy Stats</text>
    <text x="520" y="290" font-size="44" font-weight="700">Supabase</text>
    <text x="520" y="315" font-size="14" fill="#64748b">Database Health</text>
    <text x="780" y="290" font-size="44" font-weight="700">Uptime</text>
    <text x="780" y="315" font-size="14" fill="#64748b">Service Monitor</text>
  </g>
  <!-- Mini heatmap visualization -->
  <g transform="translate(80, 370)">
    <rect x="0" y="0" width="11" height="11" rx="2" fill="#26a641" opacity="0.5225882469499434"/><rect x="14" y="0" width="11" height="11" rx="2" fill="#39d353" opacity="0.7783865341200461"/><rect x="28" y="0" width="11" height="11" rx="2" fill="#39d353" opacity="0.7445704918646527"/><rect x="42" y="0" width="11" height="11" rx="2" fill="#39d353" opacity="0.889158320743498"/><rect x="56" y="0" width="11" height="11" rx="2" fill="#006d32" opacity="0.4427250830149928"/><rect x="70" y="0" width="11" height="11" rx="2" fill="#006d32" opacity="0.49839245405635635"/><rect x="84" y="0" width="11" height="11" rx="2" fill="#006d32" opacity="0.4335679264013538"/><rect x="98" y="0" width="11" height="11" rx="2" fill="#006d32" opacity="0.49894946013914"/><rect x="112" y="0" width="11" height="11" rx="2" fill="#26a641" opacity="0.5898348725059724"/><rect x="126" y="0" width="11" height="11" rx="2" fill="#0e4429" opacity="0.24504945799656475"/><rect x="140" y="0" width="11" height="11" rx="2" fill="#0e4429" opacity="0.1"/><rect x="154" y="0" width="11" height="11" rx="2" fill="#006d32" opacity="0.37083702596495904"/><rect x="168" y="0" width="11" height="11" rx="2" fill="#26a641" opacity="0.6841760728434401"/><rect x="182" y="0" width="11" height="11" rx="2" fill="#0e4429" opacity="0.2248891332913593"/><rect x="196" y="0" width="11" height="11" rx="2" fill="#0e4429" opacity="0.1"/><rect x="210" y="0" width="11" height="11" rx="2" fill="#39d353" opacity="0.719217718239229"/><rect x="224" y="0" width="11" height="11" rx="2" fill="#0e4429" opacity="0.1"/><rect x="238" y="0" width="11" height="11" rx="2" fill="#39d353" opacity="0.9560220646779896"/><rect x="252" y="0" width="11" height="11" rx="2" fill="#0e4429" opacity="0.1"/><rect x="266" y="0" width="11" height="11" rx="2" fill="#0e4429" opacity="0.1"/><rect x="280" y="0" width="11" height="11" rx="2" fill="#0e4429" opacity="0.19287100348709874"/><rect x="294" y="0" width="11" height="11" rx="2" fill="#006d32" opacity="0.4706796777152288"/><rect x="308" y="0" width="11" height="11" rx="2" fill="#0e4429" opacity="0.15695433368003842"/><rect x="322" y="0" width="11" height="11" rx="2" fill="#0e4429" opacity="0.1"/><rect x="336" y="0" width="11" height="11" rx="2" fill="#0e4429" opacity="0.19149651936242507"/><rect x="350" y="0" width="11" height="11" rx="2" fill="#0e4429" opacity="0.28358809431268917"/><rect x="364" y="0" width="11" height="11" rx="2" fill="#0e4429" opacity="0.1"/><rect x="378" y="0" width="11" height="11" rx="2" fill="#006d32" opacity="0.483602431709804"/><rect x="392" y="0" width="11" height="11" rx="2" fill="#0e4429" opacity="0.22098163244974456"/><rect x="406" y="0" width="11" height="11" rx="2" fill="#0e4429" opacity="0.1"/><rect x="420" y="0" width="11" height="11" rx="2" fill="#39d353" opacity="0.7345753395224218"/><rect x="434" y="0" width="11" height="11" rx="2" fill="#26a641" opacity="0.5860116776601492"/><rect x="448" y="0" width="11" height="11" rx="2" fill="#0e4429" opacity="0.1"/><rect x="462" y="0" width="11" height="11" rx="2" fill="#0e4429" opacity="0.1"/><rect x="476" y="0" width="11" height="11" rx="2" fill="#39d353" opacity="0.893954975114876"/><rect x="490" y="0" width="11" height="11" rx="2" fill="#0e4429" opacity="0.22244703614801886"/><rect x="504" y="0" width="11" height="11" rx="2" fill="#39d353" opacity="0.9539150186389663"/><rect x="518" y="0" width="11" height="11" rx="2" fill="#0e4429" opacity="0.2761336017599154"/><rect x="532" y="0" width="11" height="11" rx="2" fill="#0e4429" opacity="0.2771301215740464"/><rect x="546" y="0" width="11" height="11" rx="2" fill="#39d353" opacity="0.7109305512836218"/><rect x="0" y="14" width="11" height="11" rx="2" fill="#39d353" opacity="0.7513371945127524"/><rect x="14" y="14" width="11" height="11" rx="2" fill="#39d353" opacity="0.9137377274503593"/><rect x="28" y="14" width="11" height="11" rx="2" fill="#0e4429" opacity="0.1"/><rect x="42" y="14" width="11" height="11" rx="2" fill="#0e4429" opacity="0.1"/><rect x="56" y="14" width="11" height="11" rx="2" fill="#0e4429" opacity="0.1"/><rect x="70" y="14" width="11" height="11" rx="2" fill="#26a641" opacity="0.6135555004954392"/><rect x="84" y="14" width="11" height="11" rx="2" fill="#0e4429" opacity="0.21994610529587533"/><rect x="98" y="14" width="11" height="11" rx="2" fill="#39d353" opacity="0.8256230903857628"/><rect x="112" y="14" width="11" height="11" rx="2" fill="#006d32" opacity="0.37560564801548735"/><rect x="126" y="14" width="11" height="11" rx="2" fill="#39d353" opacity="0.9302128988084554"/><rect x="140" y="14" width="11" height="11" rx="2" fill="#006d32" opacity="0.3951960705126769"/><rect x="154" y="14" width="11" height="11" rx="2" fill="#0e4429" opacity="0.1"/><rect x="168" y="14" width="11" height="11" rx="2" fill="#0e4429" opacity="0.1"/><rect x="182" y="14" width="11" height="11" rx="2" fill="#26a641" opacity="0.6009473209017269"/><rect x="196" y="14" width="11" height="11" rx="2" fill="#0e4429" opacity="0.1"/><rect x="210" y="14" width="11" height="11" rx="2" fill="#0e4429" opacity="0.18229349405502282"/><rect x="224" y="14" width="11" height="11" rx="2" fill="#26a641" opacity="0.6316179716831646"/><rect x="238" y="14" width="11" height="11" rx="2" fill="#006d32" opacity="0.47056161958153253"/><rect x="252" y="14" width="11" height="11" rx="2" fill="#39d353" opacity="0.9416893910782589"/><rect x="266" y="14" width="11" height="11" rx="2" fill="#39d353" opacity="0.9692537119943965"/><rect x="280" y="14" width="11" height="11" rx="2" fill="#006d32" opacity="0.41245941847859646"/><rect x="294" y="14" width="11" height="11" rx="2" fill="#0e4429" opacity="0.1"/><rect x="308" y="14" width="11" height="11" rx="2" fill="#006d32" opacity="0.3976978272212892"/><rect x="322" y="14" width="11" height="11" rx="2" fill="#006d32" opacity="0.4856115845222745"/><rect x="336" y="14" width="11" height="11" rx="2" fill="#0e4429" opacity="0.1"/><rect x="350" y="14" width="11" height="11" rx="2" fill="#39d353" opacity="0.7115702426579226"/><rect x="364" y="14" width="11" height="11" rx="2" fill="#26a641" opacity="0.5250455370480436"/><rect x="378" y="14" width="11" height="11" rx="2" fill="#39d353" opacity="0.9208323787818705"/><rect x="392" y="14" width="11" height="11" rx="2" fill="#0e4429" opacity="0.2905649131581163"/><rect x="406" y="14" width="11" height="11" rx="2" fill="#0e4429" opacity="0.1"/><rect x="420" y="14" width="11" height="11" rx="2" fill="#39d353" opacity="0.8968746264234813"/><rect x="434" y="14" width="11" height="11" rx="2" fill="#006d32" opacity="0.49826665193661357"/><rect x="448" y="14" width="11" height="11" rx="2" fill="#39d353" opacity="0.9408634206262552"/><rect x="462" y="14" width="11" height="11" rx="2" fill="#39d353" opacity="0.838518303810693"/><rect x="476" y="14" width="11" height="11" rx="2" fill="#0e4429" opacity="0.15101766626370794"/><rect x="490" y="14" width="11" height="11" rx="2" fill="#26a641" opacity="0.5308669171766264"/><rect x="504" y="14" width="11" height="11" rx="2" fill="#006d32" opacity="0.30757962909801295"/><rect x="518" y="14" width="11" height="11" rx="2" fill="#26a641" opacity="0.6334739231684903"/><rect x="532" y="14" width="11" height="11" rx="2" fill="#39d353" opacity="0.9708424900300461"/><rect x="546" y="14" width="11" height="11" rx="2" fill="#26a641" opacity="0.5275842983639063"/><rect x="0" y="28" width="11" height="11" rx="2" fill="#39d353" opacity="0.9452769227708971"/><rect x="14" y="28" width="11" height="11" rx="2" fill="#39d353" opacity="0.7927589099861947"/><rect x="28" y="28" width="11" height="11" rx="2" fill="#39d353" opacity="0.9311659137882378"/><rect x="42" y="28" width="11" height="11" rx="2" fill="#0e4429" opacity="0.22983910062693702"/><rect x="56" y="28" width="11" height="11" rx="2" fill="#39d353" opacity="0.9778028944992884"/><rect x="70" y="28" width="11" height="11" rx="2" fill="#006d32" opacity="0.41089185034732123"/><rect x="84" y="28" width="11" height="11" rx="2" fill="#006d32" opacity="0.44556461341872045"/><rect x="98" y="28" width="11" height="11" rx="2" fill="#006d32" opacity="0.46688812069856855"/><rect x="112" y="28" width="11" height="11" rx="2" fill="#26a641" opacity="0.507568659445445"/><rect x="126" y="28" width="11" height="11" rx="2" fill="#0e4429" opacity="0.1"/><rect x="140" y="28" width="11" height="11" rx="2" fill="#0e4429" opacity="0.18769902981936448"/><rect x="154" y="28" width="11" height="11" rx="2" fill="#0e4429" opacity="0.1"/><rect x="168" y="28" width="11" height="11" rx="2" fill="#006d32" opacity="0.40544609631706907"/><rect x="182" y="28" width="11" height="11" rx="2" fill="#26a641" opacity="0.5229891427211278"/><rect x="196" y="28" width="11" height="11" rx="2" fill="#006d32" opacity="0.36840852930931434"/><rect x="210" y="28" width="11" height="11" rx="2" fill="#26a641" opacity="0.691134025977346"/><rect x="224" y="28" width="11" height="11" rx="2" fill="#39d353" opacity="0.9295966640426545"/><rect x="238" y="28" width="11" height="11" rx="2" fill="#0e4429" opacity="0.1919875648783511"/><rect x="252" y="28" width="11" height="11" rx="2" fill="#26a641" opacity="0.6772624783869244"/><rect x="266" y="28" width="11" height="11" rx="2" fill="#26a641" opacity="0.6423578524096758"/><rect x="280" y="28" width="11" height="11" rx="2" fill="#006d32" opacity="0.3126070914286352"/><rect x="294" y="28" width="11" height="11" rx="2" fill="#0e4429" opacity="0.1"/><rect x="308" y="28" width="11" height="11" rx="2" fill="#39d353" opacity="0.9660461740341282"/><rect x="322" y="28" width="11" height="11" rx="2" fill="#0e4429" opacity="0.1"/><rect x="336" y="28" width="11" height="11" rx="2" fill="#0e4429" opacity="0.24720880588296767"/><rect x="350" y="28" width="11" height="11" rx="2" fill="#006d32" opacity="0.4184756689535998"/><rect x="364" y="28" width="11" height="11" rx="2" fill="#006d32" opacity="0.3781730181798614"/><rect x="378" y="28" width="11" height="11" rx="2" fill="#006d32" opacity="0.4257759335767586"/><rect x="392" y="28" width="11" height="11" rx="2" fill="#39d353" opacity="0.9922956164069152"/><rect x="406" y="28" width="11" height="11" rx="2" fill="#26a641" opacity="0.5714747909020617"/><rect x="420" y="28" width="11" height="11" rx="2" fill="#0e4429" opacity="0.2823659349272537"/><rect x="434" y="28" width="11" height="11" rx="2" fill="#26a641" opacity="0.5381952914218145"/><rect x="448" y="28" width="11" height="11" rx="2" fill="#0e4429" opacity="0.1"/><rect x="462" y="28" width="11" height="11" rx="2" fill="#0e4429" opacity="0.2726059942870892"/><rect x="476" y="28" width="11" height="11" rx="2" fill="#39d353" opacity="0.7283425185157784"/><rect x="490" y="28" width="11" height="11" rx="2" fill="#0e4429" opacity="0.1"/><rect x="504" y="28" width="11" height="11" rx="2" fill="#26a641" opacity="0.687595018757404"/><rect x="518" y="28" width="11" height="11" rx="2" fill="#006d32" opacity="0.3217453933667299"/><rect x="532" y="28" width="11" height="11" rx="2" fill="#006d32" opacity="0.35150047933032347"/><rect x="546" y="28" width="11" height="11" rx="2" fill="#006d32" opacity="0.34879545258563294"/><rect x="0" y="42" width="11" height="11" rx="2" fill="#39d353" opacity="0.9610569433836278"/><rect x="14" y="42" width="11" height="11" rx="2" fill="#0e4429" opacity="0.2669193647343421"/><rect x="28" y="42" width="11" height="11" rx="2" fill="#39d353" opacity="0.7827973934876266"/><rect x="42" y="42" width="11" height="11" rx="2" fill="#39d353" opacity="0.9108713144071441"/><rect x="56" y="42" width="11" height="11" rx="2" fill="#26a641" opacity="0.6209072767385625"/><rect x="70" y="42" width="11" height="11" rx="2" fill="#39d353" opacity="0.7355464452737543"/><rect x="84" y="42" width="11" height="11" rx="2" fill="#39d353" opacity="0.704752634668187"/><rect x="98" y="42" width="11" height="11" rx="2" fill="#39d353" opacity="0.7630083316233329"/><rect x="112" y="42" width="11" height="11" rx="2" fill="#26a641" opacity="0.6772956275862799"/><rect x="126" y="42" width="11" height="11" rx="2" fill="#39d353" opacity="0.9931907866694165"/><rect x="140" y="42" width="11" height="11" rx="2" fill="#26a641" opacity="0.5295549429470109"/><rect x="154" y="42" width="11" height="11" rx="2" fill="#26a641" opacity="0.6906048995923488"/><rect x="168" y="42" width="11" height="11" rx="2" fill="#39d353" opacity="0.969564057622507"/><rect x="182" y="42" width="11" height="11" rx="2" fill="#0e4429" opacity="0.1"/><rect x="196" y="42" width="11" height="11" rx="2" fill="#26a641" opacity="0.6131876005533675"/><rect x="210" y="42" width="11" height="11" rx="2" fill="#39d353" opacity="0.9357550735020382"/><rect x="224" y="42" width="11" height="11" rx="2" fill="#26a641" opacity="0.6766825757500787"/><rect x="238" y="42" width="11" height="11" rx="2" fill="#006d32" opacity="0.4753319300249236"/><rect x="252" y="42" width="11" height="11" rx="2" fill="#006d32" opacity="0.30070419257176206"/><rect x="266" y="42" width="11" height="11" rx="2" fill="#006d32" opacity="0.4228867707279086"/><rect x="280" y="42" width="11" height="11" rx="2" fill="#006d32" opacity="0.43095747331170275"/><rect x="294" y="42" width="11" height="11" rx="2" fill="#26a641" opacity="0.6477846688435593"/><rect x="308" y="42" width="11" height="11" rx="2" fill="#0e4429" opacity="0.20776879727462305"/><rect x="322" y="42" width="11" height="11" rx="2" fill="#39d353" opacity="0.832197937153568"/><rect x="336" y="42" width="11" height="11" rx="2" fill="#26a641" opacity="0.5809627121838169"/><rect x="350" y="42" width="11" height="11" rx="2" fill="#39d353" opacity="0.7073762363974044"/><rect x="364" y="42" width="11" height="11" rx="2" fill="#006d32" opacity="0.3284454893918327"/><rect x="378" y="42" width="11" height="11" rx="2" fill="#39d353" opacity="0.8057395439956976"/><rect x="392" y="42" width="11" height="11" rx="2" fill="#39d353" opacity="0.8228588444023844"/><rect x="406" y="42" width="11" height="11" rx="2" fill="#006d32" opacity="0.45307379174977547"/><rect x="420" y="42" width="11" height="11" rx="2" fill="#39d353" opacity="0.8854041415976075"/><rect x="434" y="42" width="11" height="11" rx="2" fill="#0e4429" opacity="0.1"/><rect x="448" y="42" width="11" height="11" rx="2" fill="#26a641" opacity="0.5663503880082147"/><rect x="462" y="42" width="11" height="11" rx="2" fill="#26a641" opacity="0.5176516787106357"/><rect x="476" y="42" width="11" height="11" rx="2" fill="#39d353" opacity="0.7423603136337357"/><rect x="490" y="42" width="11" height="11" rx="2" fill="#26a641" opacity="0.586855611159474"/><rect x="504" y="42" width="11" height="11" rx="2" fill="#26a641" opacity="0.5006532259824565"/><rect x="518" y="42" width="11" height="11" rx="2" fill="#0e4429" opacity="0.21252311786706013"/><rect x="532" y="42" width="11" height="11" rx="2" fill="#006d32" opacity="0.4410578937465012"/><rect x="546" y="42" width="11" height="11" rx="2" fill="#0e4429" opacity="0.1"/><rect x="0" y="56" width="11" height="11" rx="2" fill="#39d353" opacity="0.9934317532973578"/><rect x="14" y="56" width="11" height="11" rx="2" fill="#26a641" opacity="0.6183553204060659"/><rect x="28" y="56" width="11" height="11" rx="2" fill="#26a641" opacity="0.5408093828869491"/><rect x="42" y="56" width="11" height="11" rx="2" fill="#0e4429" opacity="0.18235745772838174"/><rect x="56" y="56" width="11" height="11" rx="2" fill="#39d353" opacity="0.857188641872918"/><rect x="70" y="56" width="11" height="11" rx="2" fill="#39d353" opacity="0.955227971702501"/><rect x="84" y="56" width="11" height="11" rx="2" fill="#26a641" opacity="0.6611751945378344"/><rect x="98" y="56" width="11" height="11" rx="2" fill="#39d353" opacity="0.9987375300378895"/><rect x="112" y="56" width="11" height="11" rx="2" fill="#26a641" opacity="0.5328452431261094"/><rect x="126" y="56" width="11" height="11" rx="2" fill="#006d32" opacity="0.4084081795454254"/><rect x="140" y="56" width="11" height="11" rx="2" fill="#26a641" opacity="0.6408725105970019"/><rect x="154" y="56" width="11" height="11" rx="2" fill="#0e4429" opacity="0.1"/><rect x="168" y="56" width="11" height="11" rx="2" fill="#26a641" opacity="0.5621659943078233"/><rect x="182" y="56" width="11" height="11" rx="2" fill="#0e4429" opacity="0.1718914062619541"/><rect x="196" y="56" width="11" height="11" rx="2" fill="#0e4429" opacity="0.22973973733934272"/><rect x="210" y="56" width="11" height="11" rx="2" fill="#0e4429" opacity="0.23909189360711913"/><rect x="224" y="56" width="11" height="11" rx="2" fill="#0e4429" opacity="0.1"/><rect x="238" y="56" width="11" height="11" rx="2" fill="#006d32" opacity="0.32600919931895633"/><rect x="252" y="56" width="11" height="11" rx="2" fill="#006d32" opacity="0.3063179347616096"/><rect x="266" y="56" width="11" height="11" rx="2" fill="#006d32" opacity="0.48894946286651986"/><rect x="280" y="56" width="11" height="11" rx="2" fill="#006d32" opacity="0.43930354864138976"/><rect x="294" y="56" width="11" height="11" rx="2" fill="#006d32" opacity="0.44367164223791666"/><rect x="308" y="56" width="11" height="11" rx="2" fill="#26a641" opacity="0.6006258242429796"/><rect x="322" y="56" width="11" height="11" rx="2" fill="#26a641" opacity="0.5756672001597507"/><rect x="336" y="56" width="11" height="11" rx="2" fill="#0e4429" opacity="0.2977204651890313"/><rect x="350" y="56" width="11" height="11" rx="2" fill="#26a641" opacity="0.6551112499377408"/><rect x="364" y="56" width="11" height="11" rx="2" fill="#39d353" opacity="0.7989409151580833"/><rect x="378" y="56" width="11" height="11" rx="2" fill="#006d32" opacity="0.42239308686836163"/><rect x="392" y="56" width="11" height="11" rx="2" fill="#26a641" opacity="0.5471782892511805"/><rect x="406" y="56" width="11" height="11" rx="2" fill="#39d353" opacity="0.8485236433529914"/><rect x="420" y="56" width="11" height="11" rx="2" fill="#26a641" opacity="0.6503901422636703"/><rect x="434" y="56" width="11" height="11" rx="2" fill="#006d32" opacity="0.3894033566627978"/><rect x="448" y="56" width="11" height="11" rx="2" fill="#26a641" opacity="0.6910506283089428"/><rect x="462" y="56" width="11" height="11" rx="2" fill="#26a641" opacity="0.5729956153345208"/><rect x="476" y="56" width="11" height="11" rx="2" fill="#0e4429" opacity="0.1"/><rect x="490" y="56" width="11" height="11" rx="2" fill="#26a641" opacity="0.6726159108016673"/><rect x="504" y="56" width="11" height="11" rx="2" fill="#006d32" opacity="0.4209915160847132"/><rect x="518" y="56" width="11" height="11" rx="2" fill="#39d353" opacity="0.8477383996134206"/><rect x="532" y="56" width="11" height="11" rx="2" fill="#26a641" opacity="0.5522611437552211"/><rect x="546" y="56" width="11" height="11" rx="2" fill="#26a641" opacity="0.5587572881177315"/><rect x="0" y="70" width="11" height="11" rx="2" fill="#006d32" opacity="0.3029283657215007"/><rect x="14" y="70" width="11" height="11" rx="2" fill="#006d32" opacity="0.4272551163575652"/><rect x="28" y="70" width="11" height="11" rx="2" fill="#26a641" opacity="0.5964853430040397"/><rect x="42" y="70" width="11" height="11" rx="2" fill="#006d32" opacity="0.36793490307779353"/><rect x="56" y="70" width="11" height="11" rx="2" fill="#006d32" opacity="0.3635634908307869"/><rect x="70" y="70" width="11" height="11" rx="2" fill="#0e4429" opacity="0.1559258870698249"/><rect x="84" y="70" width="11" height="11" rx="2" fill="#39d353" opacity="0.806392276934683"/><rect x="98" y="70" width="11" height="11" rx="2" fill="#39d353" opacity="0.7703238933881773"/><rect x="112" y="70" width="11" height="11" rx="2" fill="#39d353" opacity="0.910871491975864"/><rect x="126" y="70" width="11" height="11" rx="2" fill="#006d32" opacity="0.3697876272333168"/><rect x="140" y="70" width="11" height="11" rx="2" fill="#0e4429" opacity="0.2267436448296246"/><rect x="154" y="70" width="11" height="11" rx="2" fill="#0e4429" opacity="0.1"/><rect x="168" y="70" width="11" height="11" rx="2" fill="#006d32" opacity="0.4327053160058466"/><rect x="182" y="70" width="11" height="11" rx="2" fill="#39d353" opacity="0.7146216381751291"/><rect x="196" y="70" width="11" height="11" rx="2" fill="#39d353" opacity="0.9106441965179876"/><rect x="210" y="70" width="11" height="11" rx="2" fill="#39d353" opacity="0.8820193699259652"/><rect x="224" y="70" width="11" height="11" rx="2" fill="#0e4429" opacity="0.1"/><rect x="238" y="70" width="11" height="11" rx="2" fill="#0e4429" opacity="0.1"/><rect x="252" y="70" width="11" height="11" rx="2" fill="#0e4429" opacity="0.1"/><rect x="266" y="70" width="11" height="11" rx="2" fill="#39d353" opacity="0.9246568542557669"/><rect x="280" y="70" width="11" height="11" rx="2" fill="#0e4429" opacity="0.1"/><rect x="294" y="70" width="11" height="11" rx="2" fill="#0e4429" opacity="0.23504804899259102"/><rect x="308" y="70" width="11" height="11" rx="2" fill="#26a641" opacity="0.662790621016425"/><rect x="322" y="70" width="11" height="11" rx="2" fill="#26a641" opacity="0.5176349957533706"/><rect x="336" y="70" width="11" height="11" rx="2" fill="#0e4429" opacity="0.19332839377410782"/><rect x="350" y="70" width="11" height="11" rx="2" fill="#39d353" opacity="0.7470418264860753"/><rect x="364" y="70" width="11" height="11" rx="2" fill="#39d353" opacity="0.775598202275487"/><rect x="378" y="70" width="11" height="11" rx="2" fill="#39d353" opacity="0.8059969804714129"/><rect x="392" y="70" width="11" height="11" rx="2" fill="#26a641" opacity="0.6643228096822958"/><rect x="406" y="70" width="11" height="11" rx="2" fill="#0e4429" opacity="0.15289786615310164"/><rect x="420" y="70" width="11" height="11" rx="2" fill="#0e4429" opacity="0.1"/><rect x="434" y="70" width="11" height="11" rx="2" fill="#0e4429" opacity="0.1"/><rect x="448" y="70" width="11" height="11" rx="2" fill="#0e4429" opacity="0.16281654189468064"/><rect x="462" y="70" width="11" height="11" rx="2" fill="#26a641" opacity="0.696748327750898"/><rect x="476" y="70" width="11" height="11" rx="2" fill="#0e4429" opacity="0.18041356926478447"/><rect x="490" y="70" width="11" height="11" rx="2" fill="#0e4429" opacity="0.1"/><rect x="504" y="70" width="11" height="11" rx="2" fill="#0e4429" opacity="0.20648194502379835"/><rect x="518" y="70" width="11" height="11" rx="2" fill="#39d353" opacity="0.8303824524479465"/><rect x="532" y="70" width="11" height="11" rx="2" fill="#0e4429" opacity="0.1"/><rect x="546" y="70" width="11" height="11" rx="2" fill="#26a641" opacity="0.5421543493273205"/><rect x="0" y="84" width="11" height="11" rx="2" fill="#39d353" opacity="0.923448260487192"/><rect x="14" y="84" width="11" height="11" rx="2" fill="#39d353" opacity="0.8159318819186896"/><rect x="28" y="84" width="11" height="11" rx="2" fill="#39d353" opacity="0.7645601030632749"/><rect x="42" y="84" width="11" height="11" rx="2" fill="#0e4429" opacity="0.1"/><rect x="56" y="84" width="11" height="11" rx="2" fill="#0e4429" opacity="0.1"/><rect x="70" y="84" width="11" height="11" rx="2" fill="#0e4429" opacity="0.1738058545303055"/><rect x="84" y="84" width="11" height="11" rx="2" fill="#0e4429" opacity="0.1"/><rect x="98" y="84" width="11" height="11" rx="2" fill="#0e4429" opacity="0.17617965303286998"/><rect x="112" y="84" width="11" height="11" rx="2" fill="#006d32" opacity="0.3812722294134344"/><rect x="126" y="84" width="11" height="11" rx="2" fill="#26a641" opacity="0.5874730175811852"/><rect x="140" y="84" width="11" height="11" rx="2" fill="#39d353" opacity="0.756946469760653"/><rect x="154" y="84" width="11" height="11" rx="2" fill="#006d32" opacity="0.32728779521601004"/><rect x="168" y="84" width="11" height="11" rx="2" fill="#39d353" opacity="0.7231531344273572"/><rect x="182" y="84" width="11" height="11" rx="2" fill="#006d32" opacity="0.3791393693072682"/><rect x="196" y="84" width="11" height="11" rx="2" fill="#006d32" opacity="0.33954269381500746"/><rect x="210" y="84" width="11" height="11" rx="2" fill="#006d32" opacity="0.49446228587121854"/><rect x="224" y="84" width="11" height="11" rx="2" fill="#39d353" opacity="0.7869042368691762"/><rect x="238" y="84" width="11" height="11" rx="2" fill="#006d32" opacity="0.30038636750624104"/><rect x="252" y="84" width="11" height="11" rx="2" fill="#26a641" opacity="0.6564542267473152"/><rect x="266" y="84" width="11" height="11" rx="2" fill="#006d32" opacity="0.3572987018212892"/><rect x="280" y="84" width="11" height="11" rx="2" fill="#0e4429" opacity="0.2777936106568709"/><rect x="294" y="84" width="11" height="11" rx="2" fill="#39d353" opacity="0.9328664479449872"/><rect x="308" y="84" width="11" height="11" rx="2" fill="#39d353" opacity="0.8164351548996267"/><rect x="322" y="84" width="11" height="11" rx="2" fill="#26a641" opacity="0.6253044157099193"/><rect x="336" y="84" width="11" height="11" rx="2" fill="#39d353" opacity="0.7494855890043293"/><rect x="350" y="84" width="11" height="11" rx="2" fill="#39d353" opacity="0.8401201706722714"/><rect x="364" y="84" width="11" height="11" rx="2" fill="#006d32" opacity="0.376292828748506"/><rect x="378" y="84" width="11" height="11" rx="2" fill="#0e4429" opacity="0.1764463905372725"/><rect x="392" y="84" width="11" height="11" rx="2" fill="#006d32" opacity="0.4483592806948872"/><rect x="406" y="84" width="11" height="11" rx="2" fill="#26a641" opacity="0.6020854440545318"/><rect x="420" y="84" width="11" height="11" rx="2" fill="#0e4429" opacity="0.1"/><rect x="434" y="84" width="11" height="11" rx="2" fill="#39d353" opacity="0.9005229974762033"/><rect x="448" y="84" width="11" height="11" rx="2" fill="#0e4429" opacity="0.2673844946172089"/><rect x="462" y="84" width="11" height="11" rx="2" fill="#006d32" opacity="0.4538056658769384"/><rect x="476" y="84" width="11" height="11" rx="2" fill="#26a641" opacity="0.5309502741794716"/><rect x="490" y="84" width="11" height="11" rx="2" fill="#39d353" opacity="0.8525588705705709"/><rect x="504" y="84" width="11" height="11" rx="2" fill="#26a641" opacity="0.6188014465242044"/><rect x="518" y="84" width="11" height="11" rx="2" fill="#26a641" opacity="0.5098669262043274"/><rect x="532" y="84" width="11" height="11" rx="2" fill="#26a641" opacity="0.6647243158735647"/><rect x="546" y="84" width="11" height="11" rx="2" fill="#26a641" opacity="0.6575333480613182"/>
  </g>
  <!-- Footer -->
  <text x="80" y="590" font-family="Helvetica Neue, Arial, sans-serif" font-size="13" fill="#475569">your-portfolio.vercel.app</text>
  <text x="1120" y="590" font-family="Helvetica Neue, Arial, sans-serif" font-size="13" fill="#475569" text-anchor="end">Fork me on GitHub</text>
</svg>