<svg xmlns="http://www.w3.org/2000/svg" width="1200" height="630" viewBox="0 0 1200 630">
  <defs>
    <linearGradient id="bg" x1="0%" y1="0%" x2="100%" y2="100%">
      <stop offset="0%" style="stop-color:#0f172a"/>
      <stop offset="100%" style="stop-color:#1e293b"/>
    </linearGradient>
    <linearGradient id="accent" x1="0%" y1="0%" x2="100%" y2="0%">
      <stop offset="0%" style="stop-color:#3b82f6"/>
      <stop offset="100%" style="stop-color:#6366f1"/>
    </linearGradient>
  </defs>
  <rect width="1200" height="630" fill="url(#bg)"/>
  <g opacity="0.04" stroke="#fff" stroke-width="0.5">
    <line x1="0" y1="0" x2="0" y2="630"/><line x1="42" y1="0" x2="42" y2="630"/><line x1="84" y1="0" x2="84" y2="630"/><line x1="126" y1="0" x2="126" y2="630"/><line x1="168" y1="0" x2="168" y2="630"/><line x1="210" y1="0" x2="210" y2="630"/><line x1="252" y1="0" x2="252" y2="630"/><line x1="294" y1="0" x2="294" y2="630"/><line x1="336" y1="0" x2="336" y2="630"/><line x1="378" y1="0" x2="378" y2="630"/><line x1="420" y1="0" x2="420" y2="630"/><line x1="462" y1="0" x2="462" y2="630"/><line x1="504" y1="0" x2="504" y2="630"/><line x1="546" y1="0" x2="546" y2="630"/><line x1="588" y1="0" x2="588" y2="630"/><line x1="630" y1="0" x2="630" y2="630"/><line x1="672" y1="0" x2="672" y2="630"/><line x1="714" y1="0" x2="714" y2="630"/><line x1="756" y1="0" x2="756" y2="630"/><line x1="798" y1="0" x2="798" y2="630"/><line x1="840" y1="0" x2="840" y2="630"/><line x1="882" y1="0" x2="882" y2="630"/><line x1="924" y1="0" x2="924" y2="630"/><line x1="966" y1="0" x2="966" y2="630"/><line x1="1008" y1="0" x2="1008" y2="630"/><line x1="1050" y1="0" x2="1050" y2="630"/><line x1="1092" y1="0" x2="1092" y2="630"/><line x1="1134" y1="0" x2="1134" y2="630"/><line x1="1176" y1="0" x2="1176" y2="630"/><line x1="1218" y1="0" x2="1218" y2="630"/>
    <line x1="0" y1="0" x2="1200" y2="0"/><line x1="0" y1="42" x2="1200" y2="42"/><line x1="0" y1="84" x2="1200" y2="84"/><line x1="0" y1="126" x2="1200" y2="126"/><line x1="0" y1="168" x2="1200" y2="168"/><line x1="0" y1="210" x2="1200" y2="210"/><line x1="0" y1="252" x2="1200" y2="252"/><line x1="0" y1="294" x2="1200" y2="294"/><line x1="0" y1="336" x2="1200" y2="336"/><line x1="0" y1="378" x2="1200" y2="378"/><line x1="0" y1="420" x2="1200" y2="420"/><line x1="0" y1="462" x2="1200" y2="462"/><line x1="0" y1="504" x2="1200" y2="504"/><line x1="0" y1="546" x2="1200" y2="546"/><line x1="0" y1="588" x2="1200" y2="588"/><line x1="0" y1="630" x2="1200" y2="630"/>
  </g>
  <rect x="0" y="0" width="6" height="630" fill="url(#accent)"/>
  <text x="80" y="140" font-family="system-ui, Helvetica, Arial, sans-serif" font-size="56" font-weight="700" fill="#ffffff">Cockpit</text>
  <text x="80" y="185" font-family="system-ui, Helvetica, Arial, sans-serif" font-size="22" fill="#94a3b8">Engineering-Dashboard — Live-Commits, Deployments, Uptime, Tech Stack</text>
  <text x="80" y="215" font-family="system-ui, Helvetica, Arial, sans-serif" font-size="17" fill="#64748b">GitHub · Vercel · Supabase — 70+ Projekte auf einen Blick</text>
  <rect x="80" y="240" width="100" height="3" rx="1.5" fill="#3b82f6"/>
  <g font-family="system-ui, Helvetica, Arial, sans-serif">
    <g transform="translate(80, 270)">
      <text y="30" font-size="36" font-weight="700" fill="#ffffff">203</text>
      <text y="50" font-size="13" fill="#64748b">Commits / Monat</text>
    </g>
    <g transform="translate(280, 270)">
      <text y="30" font-size="36" font-weight="700" fill="#ffffff">66</text>
      <text y="50" font-size="13" fill="#64748b">Vercel-Projekte</text>
    </g>
    <g transform="translate(440, 270)">
      <text y="30" font-size="36" font-weight="700" fill="#ffffff">10</text>
      <text y="50" font-size="13" fill="#64748b">Supabase-DBs</text>
    </g>
    <g transform="translate(580, 270)">
      <text y="30" font-size="36" font-weight="700" fill="#ffffff">14/14</text>
      <text y="50" font-size="13" fill="#64748b">Services Online</text>
    </g>
    <g transform="translate(780, 270)">
      <text y="30" font-size="36" font-weight="700" fill="#ffffff">16</text>
      <text y="50" font-size="13" fill="#64748b">Sprachen</text>
    </g>
  </g>
  <g transform="translate(80, 380)"><rect x="0" y="0" width="11" height="11" rx="2" fill="#26a641" opacity="0.58"/><rect x="14" y="0" width="11" height="11" rx="2" fill="#26a641" opacity="0.52"/><rect x="28" y="0" width="11" height="11" rx="2" fill="#39d353" opacity="0.91"/><rect x="42" y="0" width="11" height="11" rx="2" fill="#26a641" opacity="0.70"/><rect x="56" y="0" width="11" height="11" rx="2" fill="#39d353" opacity="0.75"/><rect x="70" y="0" width="11" height="11" rx="2" fill="#26a641" opacity="0.69"/><rect x="84" y="0" width="11" height="11" rx="2" fill="#26a641" opacity="0.52"/><rect x="98" y="0" width="11" height="11" rx="2" fill="#0e4429" opacity="0.15"/><rect x="112" y="0" width="11" height="11" rx="2" fill="#0e4429" opacity="0.1"/><rect x="126" y="0" width="11" height="11" rx="2" fill="#0e4429" opacity="0.23"/><rect x="140" y="0" width="11" height="11" rx="2" fill="#0e4429" opacity="0.29"/><rect x="154" y="0" width="11" height="11" rx="2" fill="#39d353" opacity="1.00"/><rect x="168" y="0" width="11" height="11" rx="2" fill="#39d353" opacity="0.71"/><rect x="182" y="0" width="11" height="11" rx="2" fill="#26a641" opacity="0.67"/><rect x="196" y="0" width="11" height="11" rx="2" fill="#006d32" opacity="0.36"/><rect x="210" y="0" width="11" height="11" rx="2" fill="#0e4429" opacity="0.26"/><rect x="224" y="0" width="11" height="11" rx="2" fill="#0e4429" opacity="0.1"/><rect x="238" y="0" width="11" height="11" rx="2" fill="#39d353" opacity="0.90"/><rect x="252" y="0" width="11" height="11" rx="2" fill="#39d353" opacity="0.85"/><rect x="266" y="0" width="11" height="11" rx="2" fill="#39d353" opacity="0.84"/><rect x="280" y="0" width="11" height="11" rx="2" fill="#006d32" opacity="0.45"/><rect x="294" y="0" width="11" height="11" rx="2" fill="#0e4429" opacity="0.28"/><rect x="308" y="0" width="11" height="11" rx="2" fill="#39d353" opacity="0.84"/><rect x="322" y="0" width="11" height="11" rx="2" fill="#0e4429" opacity="0.1"/><rect x="336" y="0" width="11" height="11" rx="2" fill="#39d353" opacity="0.77"/><rect x="350" y="0" width="11" height="11" rx="2" fill="#39d353" opacity="0.96"/><rect x="364" y="0" width="11" height="11" rx="2" fill="#39d353" opacity="0.81"/><rect x="378" y="0" width="11" height="11" rx="2" fill="#0e4429" opacity="0.1"/><rect x="392" y="0" width="11" height="11" rx="2" fill="#006d32" opacity="0.34"/><rect x="406" y="0" width="11" height="11" rx="2" fill="#26a641" opacity="0.65"/><rect x="420" y="0" width="11" height="11" rx="2" fill="#0e4429" opacity="0.1"/><rect x="434" y="0" width="11" height="11" rx="2" fill="#0e4429" opacity="0.27"/><rect x="448" y="0" width="11" height="11" rx="2" fill="#26a641" opacity="0.50"/><rect x="462" y="0" width="11" height="11" rx="2" fill="#39d353" opacity="0.77"/><rect x="476" y="0" width="11" height="11" rx="2" fill="#0e4429" opacity="0.27"/><rect x="490" y="0" width="11" height="11" rx="2" fill="#26a641" opacity="0.52"/><rect x="504" y="0" width="11" height="11" rx="2" fill="#0e4429" opacity="0.1"/><rect x="518" y="0" width="11" height="11" rx="2" fill="#26a641" opacity="0.58"/><rect x="532" y="0" width="11" height="11" rx="2" fill="#26a641" opacity="0.56"/><rect x="546" y="0" width="11" height="11" rx="2" fill="#26a641" opacity="0.65"/><rect x="0" y="14" width="11" height="11" rx="2" fill="#39d353" opacity="0.70"/><rect x="14" y="14" width="11" height="11" rx="2" fill="#39d353" opacity="0.85"/><rect x="28" y="14" width="11" height="11" rx="2" fill="#39d353" opacity="0.81"/><rect x="42" y="14" width="11" height="11" rx="2" fill="#0e4429" opacity="0.23"/><rect x="56" y="14" width="11" height="11" rx="2" fill="#39d353" opacity="0.84"/><rect x="70" y="14" width="11" height="11" rx="2" fill="#006d32" opacity="0.43"/><rect x="84" y="14" width="11" height="11" rx="2" fill="#39d353" opacity="0.92"/><rect x="98" y="14" width="11" height="11" rx="2" fill="#0e4429" opacity="0.1"/><rect x="112" y="14" width="11" height="11" rx="2" fill="#39d353" opacity="0.85"/><rect x="126" y="14" width="11" height="11" rx="2" fill="#0e4429" opacity="0.29"/><rect x="140" y="14" width="11" height="11" rx="2" fill="#0e4429" opacity="0.1"/><rect x="154" y="14" width="11" height="11" rx="2" fill="#006d32" opacity="0.49"/><rect x="168" y="14" width="11" height="11" rx="2" fill="#0e4429" opacity="0.1"/><rect x="182" y="14" width="11" height="11" rx="2" fill="#0e4429" opacity="0.15"/><rect x="196" y="14" width="11" height="11" rx="2" fill="#39d353" opacity="0.94"/><rect x="210" y="14" width="11" height="11" rx="2" fill="#0e4429" opacity="0.24"/><rect x="224" y="14" width="11" height="11" rx="2" fill="#006d32" opacity="0.33"/><rect x="238" y="14" width="11" height="11" rx="2" fill="#26a641" opacity="0.61"/><rect x="252" y="14" width="11" height="11" rx="2" fill="#39d353" opacity="0.73"/><rect x="266" y="14" width="11" height="11" rx="2" fill="#26a641" opacity="0.58"/><rect x="280" y="14" width="11" height="11" rx="2" fill="#39d353" opacity="0.81"/><rect x="294" y="14" width="11" height="11" rx="2" fill="#26a641" opacity="0.61"/><rect x="308" y="14" width="11" height="11" rx="2" fill="#26a641" opacity="0.62"/><rect x="322" y="14" width="11" height="11" rx="2" fill="#0e4429" opacity="0.1"/><rect x="336" y="14" width="11" height="11" rx="2" fill="#0e4429" opacity="0.27"/><rect x="350" y="14" width="11" height="11" rx="2" fill="#0e4429" opacity="0.1"/><rect x="364" y="14" width="11" height="11" rx="2" fill="#39d353" opacity="0.90"/><rect x="378" y="14" width="11" height="11" rx="2" fill="#39d353" opacity="0.98"/><rect x="392" y="14" width="11" height="11" rx="2" fill="#0e4429" opacity="0.24"/><rect x="406" y="14" width="11" height="11" rx="2" fill="#39d353" opacity="0.81"/><rect x="420" y="14" width="11" height="11" rx="2" fill="#0e4429" opacity="0.22"/><rect x="434" y="14" width="11" height="11" rx="2" fill="#006d32" opacity="0.42"/><rect x="448" y="14" width="11" height="11" rx="2" fill="#0e4429" opacity="0.1"/><rect x="462" y="14" width="11" height="11" rx="2" fill="#0e4429" opacity="0.1"/><rect x="476" y="14" width="11" height="11" rx="2" fill="#0e4429" opacity="0.1"/><rect x="490" y="14" width="11" height="11" rx="2" fill="#006d32" opacity="0.36"/><rect x="504" y="14" width="11" height="11" rx="2" fill="#26a641" opacity="0.54"/><rect x="518" y="14" width="11" height="11" rx="2" fill="#39d353" opacity="0.99"/><rect x="532" y="14" width="11" height="11" rx="2" fill="#006d32" opacity="0.42"/><rect x="546" y="14" width="11" height="11" rx="2" fill="#006d32" opacity="0.38"/><rect x="0" y="28" width="11" height="11" rx="2" fill="#006d32" opacity="0.35"/><rect x="14" y="28" width="11" height="11" rx="2" fill="#26a641" opacity="0.63"/><rect x="28" y="28" width="11" height="11" rx="2" fill="#006d32" opacity="0.42"/><rect x="42" y="28" width="11" height="11" rx="2" fill="#0e4429" opacity="0.1"/><rect x="56" y="28" width="11" height="11" rx="2" fill="#39d353" opacity="0.76"/><rect x="70" y="28" width="11" height="11" rx="2" fill="#006d32" opacity="0.43"/><rect x="84" y="28" width="11" height="11" rx="2" fill="#39d353" opacity="0.83"/><rect x="98" y="28" width="11" height="11" rx="2" fill="#0e4429" opacity="0.17"/><rect x="112" y="28" width="11" height="11" rx="2" fill="#26a641" opacity="0.68"/><rect x="126" y="28" width="11" height="11" rx="2" fill="#26a641" opacity="0.53"/><rect x="140" y="28" width="11" height="11" rx="2" fill="#39d353" opacity="0.76"/><rect x="154" y="28" width="11" height="11" rx="2" fill="#26a641" opacity="0.63"/><rect x="168" y="28" width="11" height="11" rx="2" fill="#006d32" opacity="0.49"/><rect x="182" y="28" width="11" height="11" rx="2" fill="#006d32" opacity="0.42"/><rect x="196" y="28" width="11" height="11" rx="2" fill="#0e4429" opacity="0.23"/><rect x="210" y="28" width="11" height="11" rx="2" fill="#0e4429" opacity="0.1"/><rect x="224" y="28" width="11" height="11" rx="2" fill="#006d32" opacity="0.33"/><rect x="238" y="28" width="11" height="11" rx="2" fill="#26a641" opacity="0.54"/><rect x="252" y="28" width="11" height="11" rx="2" fill="#0e4429" opacity="0.29"/><rect x="266" y="28" width="11" height="11" rx="2" fill="#39d353" opacity="0.99"/><rect x="280" y="28" width="11" height="11" rx="2" fill="#39d353" opacity="0.82"/><rect x="294" y="28" width="11" height="11" rx="2" fill="#26a641" opacity="0.60"/><rect x="308" y="28" width="11" height="11" rx="2" fill="#0e4429" opacity="0.1"/><rect x="322" y="28" width="11" height="11" rx="2" fill="#39d353" opacity="0.95"/><rect x="336" y="28" width="11" height="11" rx="2" fill="#26a641" opacity="0.58"/><rect x="350" y="28" width="11" height="11" rx="2" fill="#26a641" opacity="0.60"/><rect x="364" y="28" width="11" height="11" rx="2" fill="#0e4429" opacity="0.1"/><rect x="378" y="28" width="11" height="11" rx="2" fill="#0e4429" opacity="0.1"/><rect x="392" y="28" width="11" height="11" rx="2" fill="#39d353" opacity="0.83"/><rect x="406" y="28" width="11" height="11" rx="2" fill="#26a641" opacity="0.67"/><rect x="420" y="28" width="11" height="11" rx="2" fill="#006d32" opacity="0.47"/><rect x="434" y="28" width="11" height="11" rx="2" fill="#39d353" opacity="0.78"/><rect x="448" y="28" width="11" height="11" rx="2" fill="#26a641" opacity="0.64"/><rect x="462" y="28" width="11" height="11" rx="2" fill="#39d353" opacity="0.87"/><rect x="476" y="28" width="11" height="11" rx="2" fill="#006d32" opacity="0.34"/><rect x="490" y="28" width="11" height="11" rx="2" fill="#0e4429" opacity="0.1"/><rect x="504" y="28" width="11" height="11" rx="2" fill="#006d32" opacity="0.46"/><rect x="518" y="28" width="11" height="11" rx="2" fill="#0e4429" opacity="0.1"/><rect x="532" y="28" width="11" height="11" rx="2" fill="#39d353" opacity="0.90"/><rect x="546" y="28" width="11" height="11" rx="2" fill="#006d32" opacity="0.34"/><rect x="0" y="42" width="11" height="11" rx="2" fill="#39d353" opacity="0.71"/><rect x="14" y="42" width="11" height="11" rx="2" fill="#26a641" opacity="0.51"/><rect x="28" y="42" width="11" height="11" rx="2" fill="#0e4429" opacity="0.1"/><rect x="42" y="42" width="11" height="11" rx="2" fill="#0e4429" opacity="0.1"/><rect x="56" y="42" width="11" height="11" rx="2" fill="#26a641" opacity="0.54"/><rect x="70" y="42" width="11" height="11" rx="2" fill="#006d32" opacity="0.45"/><rect x="84" y="42" width="11" height="11" rx="2" fill="#39d353" opacity="0.95"/><rect x="98" y="42" width="11" height="11" rx="2" fill="#0e4429" opacity="0.1"/><rect x="112" y="42" width="11" height="11" rx="2" fill="#39d353" opacity="0.95"/><rect x="126" y="42" width="11" height="11" rx="2" fill="#39d353" opacity="0.94"/><rect x="140" y="42" width="11" height="11" rx="2" fill="#26a641" opacity="0.61"/><rect x="154" y="42" width="11" height="11" rx="2" fill="#26a641" opacity="0.62"/><rect x="168" y="42" width="11" height="11" rx="2" fill="#26a641" opacity="0.52"/><rect x="182" y="42" width="11" height="11" rx="2" fill="#006d32" opacity="0.46"/><rect x="196" y="42" width="11" height="11" rx="2" fill="#26a641" opacity="0.52"/><rect x="210" y="42" width="11" height="11" rx="2" fill="#0e4429" opacity="0.23"/><rect x="224" y="42" width="11" height="11" rx="2" fill="#0e4429" opacity="0.22"/><rect x="238" y="42" width="11" height="11" rx="2" fill="#0e4429" opacity="0.1"/><rect x="252" y="42" width="11" height="11" rx="2" fill="#006d32" opacity="0.33"/><rect x="266" y="42" width="11" height="11" rx="2" fill="#39d353" opacity="0.99"/><rect x="280" y="42" width="11" height="11" rx="2" fill="#26a641" opacity="0.63"/><rect x="294" y="42" width="11" height="11" rx="2" fill="#0e4429" opacity="0.23"/><rect x="308" y="42" width="11" height="11" rx="2" fill="#39d353" opacity="0.70"/><rect x="322" y="42" width="11" height="11" rx="2" fill="#0e4429" opacity="0.29"/><rect x="336" y="42" width="11" height="11" rx="2" fill="#39d353" opacity="0.71"/><rect x="350" y="42" width="11" height="11" rx="2" fill="#39d353" opacity="0.89"/><rect x="364" y="42" width="11" height="11" rx="2" fill="#0e4429" opacity="0.26"/><rect x="378" y="42" width="11" height="11" rx="2" fill="#0e4429" opacity="0.1"/><rect x="392" y="42" width="11" height="11" rx="2" fill="#26a641" opacity="0.55"/><rect x="406" y="42" width="11" height="11" rx="2" fill="#39d353" opacity="0.77"/><rect x="420" y="42" width="11" height="11" rx="2" fill="#26a641" opacity="0.64"/><rect x="434" y="42" width="11" height="11" rx="2" fill="#0e4429" opacity="0.24"/><rect x="448" y="42" width="11" height="11" rx="2" fill="#39d353" opacity="0.76"/><rect x="462" y="42" width="11" height="11" rx="2" fill="#39d353" opacity="0.94"/><rect x="476" y="42" width="11" height="11" rx="2" fill="#0e4429" opacity="0.17"/><rect x="490" y="42" width="11" height="11" rx="2" fill="#0e4429" opacity="0.1"/><rect x="504" y="42" width="11" height="11" rx="2" fill="#0e4429" opacity="0.24"/><rect x="518" y="42" width="11" height="11" rx="2" fill="#0e4429" opacity="0.18"/><rect x="532" y="42" width="11" height="11" rx="2" fill="#006d32" opacity="0.45"/><rect x="546" y="42" width="11" height="11" rx="2" fill="#0e4429" opacity="0.24"/><rect x="0" y="56" width="11" height="11" rx="2" fill="#39d353" opacity="0.77"/><rect x="14" y="56" width="11" height="11" rx="2" fill="#0e4429" opacity="0.26"/><rect x="28" y="56" width="11" height="11" rx="2" fill="#0e4429" opacity="0.1"/><rect x="42" y="56" width="11" height="11" rx="2" fill="#0e4429" opacity="0.20"/><rect x="56" y="56" width="11" height="11" rx="2" fill="#006d32" opacity="0.34"/><rect x="70" y="56" width="11" height="11" rx="2" fill="#0e4429" opacity="0.1"/><rect x="84" y="56" width="11" height="11" rx="2" fill="#39d353" opacity="0.82"/><rect x="98" y="56" width="11" height="11" rx="2" fill="#0e4429" opacity="0.1"/><rect x="112" y="56" width="11" height="11" rx="2" fill="#39d353" opacity="0.87"/><rect x="126" y="56" width="11" height="11" rx="2" fill="#0e4429" opacity="0.1"/><rect x="140" y="56" width="11" height="11" rx="2" fill="#39d353" opacity="0.70"/><rect x="154" y="56" width="11" height="11" rx="2" fill="#0e4429" opacity="0.19"/><rect x="168" y="56" width="11" height="11" rx="2" fill="#39d353" opacity="0.78"/><rect x="182" y="56" width="11" height="11" rx="2" fill="#006d32" opacity="0.32"/><rect x="196" y="56" width="11" height="11" rx="2" fill="#006d32" opacity="0.38"/><rect x="210" y="56" width="11" height="11" rx="2" fill="#26a641" opacity="0.55"/><rect x="224" y="56" width="11" height="11" rx="2" fill="#006d32" opacity="0.43"/><rect x="238" y="56" width="11" height="11" rx="2" fill="#26a641" opacity="0.69"/><rect x="252" y="56" width="11" height="11" rx="2" fill="#39d353" opacity="0.72"/><rect x="266" y="56" width="11" height="11" rx="2" fill="#26a641" opacity="0.67"/><rect x="280" y="56" width="11" height="11" rx="2" fill="#006d32" opacity="0.41"/><rect x="294" y="56" width="11" height="11" rx="2" fill="#006d32" opacity="0.31"/><rect x="308" y="56" width="11" height="11" rx="2" fill="#26a641" opacity="0.60"/><rect x="322" y="56" width="11" height="11" rx="2" fill="#39d353" opacity="0.79"/><rect x="336" y="56" width="11" height="11" rx="2" fill="#39d353" opacity="0.91"/><rect x="350" y="56" width="11" height="11" rx="2" fill="#006d32" opacity="0.39"/><rect x="364" y="56" width="11" height="11" rx="2" fill="#0e4429" opacity="0.1"/><rect x="378" y="56" width="11" height="11" rx="2" fill="#0e4429" opacity="0.1"/><rect x="392" y="56" width="11" height="11" rx="2" fill="#39d353" opacity="0.89"/><rect x="406" y="56" width="11" height="11" rx="2" fill="#26a641" opacity="0.56"/><rect x="420" y="56" width="11" height="11" rx="2" fill="#26a641" opacity="0.57"/><rect x="434" y="56" width="11" height="11" rx="2" fill="#39d353" opacity="0.90"/><rect x="448" y="56" width="11" height="11" rx="2" fill="#39d353" opacity="0.82"/><rect x="462" y="56" width="11" height="11" rx="2" fill="#39d353" opacity="0.83"/><rect x="476" y="56" width="11" height="11" rx="2" fill="#39d353" opacity="0.87"/><rect x="490" y="56" width="11" height="11" rx="2" fill="#0e4429" opacity="0.1"/><rect x="504" y="56" width="11" height="11" rx="2" fill="#006d32" opacity="0.39"/><rect x="518" y="56" width="11" height="11" rx="2" fill="#006d32" opacity="0.40"/><rect x="532" y="56" width="11" height="11" rx="2" fill="#0e4429" opacity="0.1"/><rect x="546" y="56" width="11" height="11" rx="2" fill="#006d32" opacity="0.47"/><rect x="0" y="70" width="11" height="11" rx="2" fill="#26a641" opacity="0.68"/><rect x="14" y="70" width="11" height="11" rx="2" fill="#26a641" opacity="0.61"/><rect x="28" y="70" width="11" height="11" rx="2" fill="#39d353" opacity="0.84"/><rect x="42" y="70" width="11" height="11" rx="2" fill="#26a641" opacity="0.67"/><rect x="56" y="70" width="11" height="11" rx="2" fill="#26a641" opacity="0.66"/><rect x="70" y="70" width="11" height="11" rx="2" fill="#0e4429" opacity="0.1"/><rect x="84" y="70" width="11" height="11" rx="2" fill="#39d353" opacity="0.82"/><rect x="98" y="70" width="11" height="11" rx="2" fill="#26a641" opacity="0.57"/><rect x="112" y="70" width="11" height="11" rx="2" fill="#006d32" opacity="0.31"/><rect x="126" y="70" width="11" height="11" rx="2" fill="#0e4429" opacity="0.16"/><rect x="140" y="70" width="11" height="11" rx="2" fill="#0e4429" opacity="0.17"/><rect x="154" y="70" width="11" height="11" rx="2" fill="#0e4429" opacity="0.1"/><rect x="168" y="70" width="11" height="11" rx="2" fill="#0e4429" opacity="0.19"/><rect x="182" y="70" width="11" height="11" rx="2" fill="#39d353" opacity="0.71"/><rect x="196" y="70" width="11" height="11" rx="2" fill="#0e4429" opacity="0.1"/><rect x="210" y="70" width="11" height="11" rx="2" fill="#0e4429" opacity="0.16"/><rect x="224" y="70" width="11" height="11" rx="2" fill="#26a641" opacity="0.69"/><rect x="238" y="70" width="11" height="11" rx="2" fill="#0e4429" opacity="0.1"/><rect x="252" y="70" width="11" height="11" rx="2" fill="#0e4429" opacity="0.17"/><rect x="266" y="70" width="11" height="11" rx="2" fill="#0e4429" opacity="0.1"/><rect x="280" y="70" width="11" height="11" rx="2" fill="#0e4429" opacity="0.1"/><rect x="294" y="70" width="11" height="11" rx="2" fill="#39d353" opacity="0.84"/><rect x="308" y="70" width="11" height="11" rx="2" fill="#39d353" opacity="0.75"/><rect x="322" y="70" width="11" height="11" rx="2" fill="#006d32" opacity="0.35"/><rect x="336" y="70" width="11" height="11" rx="2" fill="#006d32" opacity="0.38"/><rect x="350" y="70" width="11" height="11" rx="2" fill="#26a641" opacity="0.69"/><rect x="364" y="70" width="11" height="11" rx="2" fill="#006d32" opacity="0.38"/><rect x="378" y="70" width="11" height="11" rx="2" fill="#26a641" opacity="0.63"/><rect x="392" y="70" width="11" height="11" rx="2" fill="#39d353" opacity="0.83"/><rect x="406" y="70" width="11" height="11" rx="2" fill="#26a641" opacity="0.67"/><rect x="420" y="70" width="11" height="11" rx="2" fill="#006d32" opacity="0.41"/><rect x="434" y="70" width="11" height="11" rx="2" fill="#0e4429" opacity="0.1"/><rect x="448" y="70" width="11" height="11" rx="2" fill="#0e4429" opacity="0.1"/><rect x="462" y="70" width="11" height="11" rx="2" fill="#0e4429" opacity="0.1"/><rect x="476" y="70" width="11" height="11" rx="2" fill="#006d32" opacity="0.35"/><rect x="490" y="70" width="11" height="11" rx="2" fill="#26a641" opacity="0.52"/><rect x="504" y="70" width="11" height="11" rx="2" fill="#0e4429" opacity="0.18"/><rect x="518" y="70" width="11" height="11" rx="2" fill="#39d353" opacity="0.75"/><rect x="532" y="70" width="11" height="11" rx="2" fill="#26a641" opacity="0.69"/><rect x="546" y="70" width="11" height="11" rx="2" fill="#006d32" opacity="0.39"/><rect x="0" y="84" width="11" height="11" rx="2" fill="#0e4429" opacity="0.1"/><rect x="14" y="84" width="11" height="11" rx="2" fill="#0e4429" opacity="0.28"/><rect x="28" y="84" width="11" height="11" rx="2" fill="#006d32" opacity="0.42"/><rect x="42" y="84" width="11" height="11" rx="2" fill="#39d353" opacity="0.72"/><rect x="56" y="84" width="11" height="11" rx="2" fill="#0e4429" opacity="0.16"/><rect x="70" y="84" width="11" height="11" rx="2" fill="#26a641" opacity="0.64"/><rect x="84" y="84" width="11" height="11" rx="2" fill="#39d353" opacity="0.85"/><rect x="98" y="84" width="11" height="11" rx="2" fill="#006d32" opacity="0.44"/><rect x="112" y="84" width="11" height="11" rx="2" fill="#39d353" opacity="0.88"/><rect x="126" y="84" width="11" height="11" rx="2" fill="#0e4429" opacity="0.1"/><rect x="140" y="84" width="11" height="11" rx="2" fill="#26a641" opacity="0.70"/><rect x="154" y="84" width="11" height="11" rx="2" fill="#0e4429" opacity="0.1"/><rect x="168" y="84" width="11" height="11" rx="2" fill="#39d353" opacity="0.97"/><rect x="182" y="84" width="11" height="11" rx="2" fill="#26a641" opacity="0.52"/><rect x="196" y="84" width="11" height="11" rx="2" fill="#39d353" opacity="0.74"/><rect x="210" y="84" width="11" height="11" rx="2" fill="#006d32" opacity="0.30"/><rect x="224" y="84" width="11" height="11" rx="2" fill="#26a641" opacity="0.58"/><rect x="238" y="84" width="11" height="11" rx="2" fill="#39d353" opacity="0.70"/><rect x="252" y="84" width="11" height="11" rx="2" fill="#39d353" opacity="0.96"/><rect x="266" y="84" width="11" height="11" rx="2" fill="#0e4429" opacity="0.1"/><rect x="280" y="84" width="11" height="11" rx="2" fill="#0e4429" opacity="0.1"/><rect x="294" y="84" width="11" height="11" rx="2" fill="#26a641" opacity="0.53"/><rect x="308" y="84" width="11" height="11" rx="2" fill="#006d32" opacity="0.30"/><rect x="322" y="84" width="11" height="11" rx="2" fill="#006d32" opacity="0.35"/><rect x="336" y="84" width="11" height="11" rx="2" fill="#0e4429" opacity="0.20"/><rect x="350" y="84" width="11" height="11" rx="2" fill="#26a641" opacity="0.62"/><rect x="364" y="84" width="11" height="11" rx="2" fill="#0e4429" opacity="0.18"/><rect x="378" y="84" width="11" height="11" rx="2" fill="#0e4429" opacity="0.26"/><rect x="392" y="84" width="11" height="11" rx="2" fill="#26a641" opacity="0.58"/><rect x="406" y="84" width="11" height="11" rx="2" fill="#006d32" opacity="0.42"/><rect x="420" y="84" width="11" height="11" rx="2" fill="#0e4429" opacity="0.24"/><rect x="434" y="84" width="11" height="11" rx="2" fill="#006d32" opacity="0.46"/><rect x="448" y="84" width="11" height="11" rx="2" fill="#006d32" opacity="0.46"/><rect x="462" y="84" width="11" height="11" rx="2" fill="#0e4429" opacity="0.1"/><rect x="476" y="84" width="11" height="11" rx="2" fill="#26a641" opacity="0.65"/><rect x="490" y="84" width="11" height="11" rx="2" fill="#39d353" opacity="0.73"/><rect x="504" y="84" width="11" height="11" rx="2" fill="#39d353" opacity="0.82"/><rect x="518" y="84" width="11" height="11" rx="2" fill="#0e4429" opacity="0.1"/><rect x="532" y="84" width="11" height="11" rx="2" fill="#39d353" opacity="0.86"/><rect x="546" y="84" width="11" height="11" rx="2" fill="#39d353" opacity="0.87"/></g>
  <text x="80" y="598" font-family="system-ui, Helvetica, Arial, sans-serif" font-size="14" fill="#475569">cockpit.rapold.io</text>
  <text x="1120" y="598" font-family="system-ui, Helvetica, Arial, sans-serif" font-size="14" fill="#475569" text-anchor="end">Marcel Rapold</text>
</svg>