<svg xmlns="http://www.w3.org/2000/svg" width="1200" height="630" viewBox="0 0 1200 630">
  <defs>
    <linearGradient id="bg" x1="0%" y1="0%" x2="100%" y2="100%">
      <stop offset="0%" style="stop-color:#0f172a"/>
      <stop offset="100%" style="stop-color:#1e293b"/>
    </linearGradient>
    <linearGradient id="accent" x1="0%" y1="0%" x2="100%" y2="0%">
      <stop offset="0%" style="stop-color:#3b82f6"/>
      <stop offset="100%" style="stop-color:#6366f1"/>
    </linearGradient>
  </defs>
  <rect width="1200" height="630" fill="url(#bg)"/>
  <!-- Grid pattern -->
  <g opacity="0.04" stroke="#fff" stroke-width="0.5">
    <line x1="0" y1="0" x2="0" y2="630"/><line x1="42" y1="0" x2="42" y2="630"/><line x1="84" y1="0" x2="84" y2="630"/><line x1="126" y1="0" x2="126" y2="630"/><line x1="168" y1="0" x2="168" y2="630"/><line x1="210" y1="0" x2="210" y2="630"/><line x1="252" y1="0" x2="252" y2="630"/><line x1="294" y1="0" x2="294" y2="630"/><line x1="336" y1="0" x2="336" y2="630"/><line x1="378" y1="0" x2="378" y2="630"/><line x1="420" y1="0" x2="420" y2="630"/><line x1="462" y1="0" x2="462" y2="630"/><line x1="504" y1="0" x2="504" y2="630"/><line x1="546" y1="0" x2="546" y2="630"/><line x1="588" y1="0" x2="588" y2="630"/><line x1="630" y1="0" x2="630" y2="630"/><line x1="672" y1="0" x2="672" y2="630"/><line x1="714" y1="0" x2="714" y2="630"/><line x1="756" y1="0" x2="756" y2="630"/><line x1="798" y1="0" x2="798" y2="630"/><line x1="840" y1="0" x2="840" y2="630"/><line x1="882" y1="0" x2="882" y2="630"/><line x1="924" y1="0" x2="924" y2="630"/><line x1="966" y1="0" x2="966" y2="630"/><line x1="1008" y1="0" x2="1008" y2="630"/><line x1="1050" y1="0" x2="1050" y2="630"/><line x1="1092" y1="0" x2="1092" y2="630"/><line x1="1134" y1="0" x2="1134" y2="630"/><line x1="1176" y1="0" x2="1176" y2="630"/><line x1="1218" y1="0" x2="1218" y2="630"/>
    <line x1="0" y1="0" x2="1200" y2="0"/><line x1="0" y1="42" x2="1200" y2="42"/><line x1="0" y1="84" x2="1200" y2="84"/><line x1="0" y1="126" x2="1200" y2="126"/><line x1="0" y1="168" x2="1200" y2="168"/><line x1="0" y1="210" x2="1200" y2="210"/><line x1="0" y1="252" x2="1200" y2="252"/><line x1="0" y1="294" x2="1200" y2="294"/><line x1="0" y1="336" x2="1200" y2="336"/><line x1="0" y1="378" x2="1200" y2="378"/><line x1="0" y1="420" x2="1200" y2="420"/><line x1="0" y1="462" x2="1200" y2="462"/><line x1="0" y1="504" x2="1200" y2="504"/><line x1="0" y1="546" x2="1200" y2="546"/><line x1="0" y1="588" x2="1200" y2="588"/><line x1="0" y1="630" x2="1200" y2="630"/>
  </g>
  <!-- Accent bar -->
  <rect x="0" y="0" width="6" height="630" fill="url(#accent)"/>
  <!-- Title -->
  <text x="80" y="145" font-family="Helvetica Neue, Arial, sans-serif" font-size="52" font-weight="700" fill="#ffffff">Cockpit</text>
  <!-- Subtitle -->
  <text x="80" y="190" font-family="Helvetica Neue, Arial, sans-serif" font-size="22" fill="#94a3b8">Live KPIs · Commit Calendar · Uptime Monitor · Tech Stack</text>
  <!-- Divider -->
  <rect x="80" y="220" width="120" height="3" rx="1.5" fill="#3b82f6"/>
  <!-- KPIs -->
  <g font-family="Helvetica Neue, Arial, sans-serif" fill="#ffffff">
    <text x="80" y="290" font-size="44" font-weight="700">GitHub</text>
    <text x="80" y="315" font-size="14" fill="#64748b">Commit Activity</text>
    <text x="300" y="290" font-size="44" font-weight="700">Vercel</text>
    <text x="300" y="315" font-size="14" fill="#64748b">Deploy Stats</text>
    <text x="520" y="290" font-size="44" font-weight="700">Supabase</text>
    <text x="520" y="315" font-size="14" fill="#64748b">Database Health</text>
    <text x="780" y="290" font-size="44" font-weight="700">Uptime</text>
    <text x="780" y="315" font-size="14" fill="#64748b">Service Monitor</text>
  </g>
  <!-- Mini heatmap visualization -->
  <g transform="translate(80, 370)">
    <rect x="0" y="0" width="11" height="11" rx="2" fill="#0e4429" opacity="0.17792283613621906"/><rect x="14" y="0" width="11" height="11" rx="2" fill="#0e4429" opacity="0.16123634765527006"/><rect x="28" y="0" width="11" height="11" rx="2" fill="#39d353" opacity="0.9666098299079475"/><rect x="42" y="0" width="11" height="11" rx="2" fill="#39d353" opacity="0.8367574252200132"/><rect x="56" y="0" width="11" height="11" rx="2" fill="#0e4429" opacity="0.18538988297887804"/><rect x="70" y="0" width="11" height="11" rx="2" fill="#006d32" opacity="0.41243989059489294"/><rect x="84" y="0" width="11" height="11" rx="2" fill="#006d32" opacity="0.45328357206443703"/><rect x="98" y="0" width="11" height="11" rx="2" fill="#26a641" opacity="0.5981968067293237"/><rect x="112" y="0" width="11" height="11" rx="2" fill="#006d32" opacity="0.30877037445848"/><rect x="126" y="0" width="11" height="11" rx="2" fill="#0e4429" opacity="0.1"/><rect x="140" y="0" width="11" height="11" rx="2" fill="#39d353" opacity="0.74481748182155"/><rect x="154" y="0" width="11" height="11" rx="2" fill="#0e4429" opacity="0.29258190426048225"/><rect x="168" y="0" width="11" height="11" rx="2" fill="#0e4429" opacity="0.1"/><rect x="182" y="0" width="11" height="11" rx="2" fill="#0e4429" opacity="0.1"/><rect x="196" y="0" width="11" height="11" rx="2" fill="#006d32" opacity="0.4712778827017179"/><rect x="210" y="0" width="11" height="11" rx="2" fill="#39d353" opacity="0.7050950330193138"/><rect x="224" y="0" width="11" height="11" rx="2" fill="#0e4429" opacity="0.1"/><rect x="238" y="0" width="11" height="11" rx="2" fill="#006d32" opacity="0.3813913786293863"/><rect x="252" y="0" width="11" height="11" rx="2" fill="#26a641" opacity="0.5994350802750517"/><rect x="266" y="0" width="11" height="11" rx="2" fill="#006d32" opacity="0.37849850589456313"/><rect x="280" y="0" width="11" height="11" rx="2" fill="#26a641" opacity="0.6907515867000074"/><rect x="294" y="0" width="11" height="11" rx="2" fill="#26a641" opacity="0.5344345983476382"/><rect x="308" y="0" width="11" height="11" rx="2" fill="#39d353" opacity="0.7663282138158107"/><rect x="322" y="0" width="11" height="11" rx="2" fill="#0e4429" opacity="0.1"/><rect x="336" y="0" width="11" height="11" rx="2" fill="#39d353" opacity="0.8442788241245569"/><rect x="350" y="0" width="11" height="11" rx="2" fill="#39d353" opacity="0.8884800963379178"/><rect x="364" y="0" width="11" height="11" rx="2" fill="#0e4429" opacity="0.2205116763410604"/><rect x="378" y="0" width="11" height="11" rx="2" fill="#0e4429" opacity="0.15748226051930247"/><rect x="392" y="0" width="11" height="11" rx="2" fill="#006d32" opacity="0.4509622321092992"/><rect x="406" y="0" width="11" height="11" rx="2" fill="#0e4429" opacity="0.1"/><rect x="420" y="0" width="11" height="11" rx="2" fill="#0e4429" opacity="0.1"/><rect x="434" y="0" width="11" height="11" rx="2" fill="#0e4429" opacity="0.1"/><rect x="448" y="0" width="11" height="11" rx="2" fill="#39d353" opacity="0.7477856504882994"/><rect x="462" y="0" width="11" height="11" rx="2" fill="#39d353" opacity="0.7910215194528538"/><rect x="476" y="0" width="11" height="11" rx="2" fill="#0e4429" opacity="0.1515642791679559"/><rect x="490" y="0" width="11" height="11" rx="2" fill="#39d353" opacity="0.8099109097869086"/><rect x="504" y="0" width="11" height="11" rx="2" fill="#39d353" opacity="0.9861945015981219"/><rect x="518" y="0" width="11" height="11" rx="2" fill="#006d32" opacity="0.4644468155539221"/><rect x="532" y="0" width="11" height="11" rx="2" fill="#26a641" opacity="0.5746611475742167"/><rect x="546" y="0" width="11" height="11" rx="2" fill="#006d32" opacity="0.4252018375036033"/><rect x="0" y="14" width="11" height="11" rx="2" fill="#26a641" opacity="0.6133956176963131"/><rect x="14" y="14" width="11" height="11" rx="2" fill="#39d353" opacity="0.8947585918138485"/><rect x="28" y="14" width="11" height="11" rx="2" fill="#39d353" opacity="0.8181621625457716"/><rect x="42" y="14" width="11" height="11" rx="2" fill="#39d353" opacity="0.8628579269164804"/><rect x="56" y="14" width="11" height="11" rx="2" fill="#006d32" opacity="0.329229039080124"/><rect x="70" y="14" width="11" height="11" rx="2" fill="#39d353" opacity="0.7003171722965598"/><rect x="84" y="14" width="11" height="11" rx="2" fill="#26a641" opacity="0.6909120491769283"/><rect x="98" y="14" width="11" height="11" rx="2" fill="#0e4429" opacity="0.1"/><rect x="112" y="14" width="11" height="11" rx="2" fill="#39d353" opacity="0.8955756750052075"/><rect x="126" y="14" width="11" height="11" rx="2" fill="#39d353" opacity="0.7535649787912202"/><rect x="140" y="14" width="11" height="11" rx="2" fill="#39d353" opacity="0.7989904774137941"/><rect x="154" y="14" width="11" height="11" rx="2" fill="#006d32" opacity="0.3690452958012933"/><rect x="168" y="14" width="11" height="11" rx="2" fill="#39d353" opacity="0.9969398294421747"/><rect x="182" y="14" width="11" height="11" rx="2" fill="#39d353" opacity="0.9433161393749874"/><rect x="196" y="14" width="11" height="11" rx="2" fill="#0e4429" opacity="0.1"/><rect x="210" y="14" width="11" height="11" rx="2" fill="#006d32" opacity="0.34533198814653354"/><rect x="224" y="14" width="11" height="11" rx="2" fill="#0e4429" opacity="0.24921290721269385"/><rect x="238" y="14" width="11" height="11" rx="2" fill="#006d32" opacity="0.4809415474101717"/><rect x="252" y="14" width="11" height="11" rx="2" fill="#0e4429" opacity="0.1"/><rect x="266" y="14" width="11" height="11" rx="2" fill="#0e4429" opacity="0.1"/><rect x="280" y="14" width="11" height="11" rx="2" fill="#0e4429" opacity="0.1"/><rect x="294" y="14" width="11" height="11" rx="2" fill="#39d353" opacity="0.7515827301377451"/><rect x="308" y="14" width="11" height="11" rx="2" fill="#26a641" opacity="0.5715850985873512"/><rect x="322" y="14" width="11" height="11" rx="2" fill="#0e4429" opacity="0.2993337058393619"/><rect x="336" y="14" width="11" height="11" rx="2" fill="#006d32" opacity="0.47147556879732777"/><rect x="350" y="14" width="11" height="11" rx="2" fill="#26a641" opacity="0.590560818806956"/><rect x="364" y="14" width="11" height="11" rx="2" fill="#0e4429" opacity="0.2607209296594253"/><rect x="378" y="14" width="11" height="11" rx="2" fill="#0e4429" opacity="0.1"/><rect x="392" y="14" width="11" height="11" rx="2" fill="#26a641" opacity="0.6255798217743642"/><rect x="406" y="14" width="11" height="11" rx="2" fill="#0e4429" opacity="0.21961374546123658"/><rect x="420" y="14" width="11" height="11" rx="2" fill="#006d32" opacity="0.3891673068235306"/><rect x="434" y="14" width="11" height="11" rx="2" fill="#39d353" opacity="0.9025401755136384"/><rect x="448" y="14" width="11" height="11" rx="2" fill="#26a641" opacity="0.547096733299234"/><rect x="462" y="14" width="11" height="11" rx="2" fill="#26a641" opacity="0.5566862698190036"/><rect x="476" y="14" width="11" height="11" rx="2" fill="#26a641" opacity="0.5109744669231142"/><rect x="490" y="14" width="11" height="11" rx="2" fill="#0e4429" opacity="0.1"/><rect x="504" y="14" width="11" height="11" rx="2" fill="#26a641" opacity="0.5249357352159048"/><rect x="518" y="14" width="11" height="11" rx="2" fill="#26a641" opacity="0.6529213480141818"/><rect x="532" y="14" width="11" height="11" rx="2" fill="#006d32" opacity="0.3599062549859171"/><rect x="546" y="14" width="11" height="11" rx="2" fill="#0e4429" opacity="0.2517987170478362"/><rect x="0" y="28" width="11" height="11" rx="2" fill="#0e4429" opacity="0.1"/><rect x="14" y="28" width="11" height="11" rx="2" fill="#26a641" opacity="0.6906056378412724"/><rect x="28" y="28" width="11" height="11" rx="2" fill="#39d353" opacity="0.8720355505123523"/><rect x="42" y="28" width="11" height="11" rx="2" fill="#0e4429" opacity="0.21705071274239351"/><rect x="56" y="28" width="11" height="11" rx="2" fill="#39d353" opacity="0.8182091982367177"/><rect x="70" y="28" width="11" height="11" rx="2" fill="#0e4429" opacity="0.1"/><rect x="84" y="28" width="11" height="11" rx="2" fill="#0e4429" opacity="0.1"/><rect x="98" y="28" width="11" height="11" rx="2" fill="#39d353" opacity="0.8863694551657422"/><rect x="112" y="28" width="11" height="11" rx="2" fill="#26a641" opacity="0.5678872273452176"/><rect x="126" y="28" width="11" height="11" rx="2" fill="#39d353" opacity="0.7319404822344429"/><rect x="140" y="28" width="11" height="11" rx="2" fill="#0e4429" opacity="0.27231173949133436"/><rect x="154" y="28" width="11" height="11" rx="2" fill="#0e4429" opacity="0.1"/><rect x="168" y="28" width="11" height="11" rx="2" fill="#0e4429" opacity="0.18697529552213688"/><rect x="182" y="28" width="11" height="11" rx="2" fill="#26a641" opacity="0.6732666028465679"/><rect x="196" y="28" width="11" height="11" rx="2" fill="#39d353" opacity="0.7096781982901796"/><rect x="210" y="28" width="11" height="11" rx="2" fill="#0e4429" opacity="0.17855980445233333"/><rect x="224" y="28" width="11" height="11" rx="2" fill="#26a641" opacity="0.519132985265587"/><rect x="238" y="28" width="11" height="11" rx="2" fill="#006d32" opacity="0.48779235293545353"/><rect x="252" y="28" width="11" height="11" rx="2" fill="#39d353" opacity="0.8240757187828631"/><rect x="266" y="28" width="11" height="11" rx="2" fill="#0e4429" opacity="0.28283988230614243"/><rect x="280" y="28" width="11" height="11" rx="2" fill="#0e4429" opacity="0.1"/><rect x="294" y="28" width="11" height="11" rx="2" fill="#26a641" opacity="0.6726344704721192"/><rect x="308" y="28" width="11" height="11" rx="2" fill="#0e4429" opacity="0.1"/><rect x="322" y="28" width="11" height="11" rx="2" fill="#26a641" opacity="0.6636680385321392"/><rect x="336" y="28" width="11" height="11" rx="2" fill="#26a641" opacity="0.5277226191749591"/><rect x="350" y="28" width="11" height="11" rx="2" fill="#006d32" opacity="0.35333531561408815"/><rect x="364" y="28" width="11" height="11" rx="2" fill="#26a641" opacity="0.6539686294398228"/><rect x="378" y="28" width="11" height="11" rx="2" fill="#26a641" opacity="0.5796155228736268"/><rect x="392" y="28" width="11" height="11" rx="2" fill="#26a641" opacity="0.6011651358244223"/><rect x="406" y="28" width="11" height="11" rx="2" fill="#39d353" opacity="0.8536534118708998"/><rect x="420" y="28" width="11" height="11" rx="2" fill="#39d353" opacity="0.9177823856573053"/><rect x="434" y="28" width="11" height="11" rx="2" fill="#39d353" opacity="0.9570284804886415"/><rect x="448" y="28" width="11" height="11" rx="2" fill="#006d32" opacity="0.4843488214289604"/><rect x="462" y="28" width="11" height="11" rx="2" fill="#39d353" opacity="0.869262256437924"/><rect x="476" y="28" width="11" height="11" rx="2" fill="#26a641" opacity="0.5119912803206621"/><rect x="490" y="28" width="11" height="11" rx="2" fill="#006d32" opacity="0.44018795208491457"/><rect x="504" y="28" width="11" height="11" rx="2" fill="#26a641" opacity="0.6776334488985141"/><rect x="518" y="28" width="11" height="11" rx="2" fill="#006d32" opacity="0.47258086744508443"/><rect x="532" y="28" width="11" height="11" rx="2" fill="#26a641" opacity="0.66605621529868"/><rect x="546" y="28" width="11" height="11" rx="2" fill="#0e4429" opacity="0.1"/><rect x="0" y="42" width="11" height="11" rx="2" fill="#39d353" opacity="0.803544337743173"/><rect x="14" y="42" width="11" height="11" rx="2" fill="#006d32" opacity="0.310572691604178"/><rect x="28" y="42" width="11" height="11" rx="2" fill="#39d353" opacity="0.7298970487580383"/><rect x="42" y="42" width="11" height="11" rx="2" fill="#0e4429" opacity="0.2807879088121914"/><rect x="56" y="42" width="11" height="11" rx="2" fill="#006d32" opacity="0.35695703623566155"/><rect x="70" y="42" width="11" height="11" rx="2" fill="#006d32" opacity="0.40061777553423306"/><rect x="84" y="42" width="11" height="11" rx="2" fill="#0e4429" opacity="0.25192493087038526"/><rect x="98" y="42" width="11" height="11" rx="2" fill="#26a641" opacity="0.5030409871680785"/><rect x="112" y="42" width="11" height="11" rx="2" fill="#26a641" opacity="0.5848676186896367"/><rect x="126" y="42" width="11" height="11" rx="2" fill="#0e4429" opacity="0.1622808206766433"/><rect x="140" y="42" width="11" height="11" rx="2" fill="#006d32" opacity="0.38699112792410206"/><rect x="154" y="42" width="11" height="11" rx="2" fill="#0e4429" opacity="0.1"/><rect x="168" y="42" width="11" height="11" rx="2" fill="#26a641" opacity="0.501615631849373"/><rect x="182" y="42" width="11" height="11" rx="2" fill="#0e4429" opacity="0.2787660074952072"/><rect x="196" y="42" width="11" height="11" rx="2" fill="#39d353" opacity="0.8100736179991075"/><rect x="210" y="42" width="11" height="11" rx="2" fill="#006d32" opacity="0.3998814739228207"/><rect x="224" y="42" width="11" height="11" rx="2" fill="#26a641" opacity="0.5855202958239345"/><rect x="238" y="42" width="11" height="11" rx="2" fill="#006d32" opacity="0.34108729889532485"/><rect x="252" y="42" width="11" height="11" rx="2" fill="#39d353" opacity="0.9680047284248166"/><rect x="266" y="42" width="11" height="11" rx="2" fill="#0e4429" opacity="0.20334477190113254"/><rect x="280" y="42" width="11" height="11" rx="2" fill="#0e4429" opacity="0.1"/><rect x="294" y="42" width="11" height="11" rx="2" fill="#006d32" opacity="0.34367865095114847"/><rect x="308" y="42" width="11" height="11" rx="2" fill="#26a641" opacity="0.5107128385676649"/><rect x="322" y="42" width="11" height="11" rx="2" fill="#006d32" opacity="0.3655409257939721"/><rect x="336" y="42" width="11" height="11" rx="2" fill="#39d353" opacity="0.8892482801160031"/><rect x="350" y="42" width="11" height="11" rx="2" fill="#0e4429" opacity="0.1568673355977479"/><rect x="364" y="42" width="11" height="11" rx="2" fill="#39d353" opacity="0.9007096500595164"/><rect x="378" y="42" width="11" height="11" rx="2" fill="#26a641" opacity="0.6696113822242526"/><rect x="392" y="42" width="11" height="11" rx="2" fill="#26a641" opacity="0.569231970363546"/><rect x="406" y="42" width="11" height="11" rx="2" fill="#26a641" opacity="0.5530074496117643"/><rect x="420" y="42" width="11" height="11" rx="2" fill="#006d32" opacity="0.30354634747699727"/><rect x="434" y="42" width="11" height="11" rx="2" fill="#006d32" opacity="0.32906944495578383"/><rect x="448" y="42" width="11" height="11" rx="2" fill="#39d353" opacity="0.9698916532835156"/><rect x="462" y="42" width="11" height="11" rx="2" fill="#0e4429" opacity="0.2314545620319688"/><rect x="476" y="42" width="11" height="11" rx="2" fill="#26a641" opacity="0.6718611013879872"/><rect x="490" y="42" width="11" height="11" rx="2" fill="#006d32" opacity="0.3130379620061208"/><rect x="504" y="42" width="11" height="11" rx="2" fill="#0e4429" opacity="0.19245633976421472"/><rect x="518" y="42" width="11" height="11" rx="2" fill="#39d353" opacity="0.7770528381430486"/><rect x="532" y="42" width="11" height="11" rx="2" fill="#0e4429" opacity="0.1"/><rect x="546" y="42" width="11" height="11" rx="2" fill="#26a641" opacity="0.5262652964924976"/><rect x="0" y="56" width="11" height="11" rx="2" fill="#39d353" opacity="0.754964501167108"/><rect x="14" y="56" width="11" height="11" rx="2" fill="#39d353" opacity="0.8059600040711445"/><rect x="28" y="56" width="11" height="11" rx="2" fill="#39d353" opacity="0.9310681676948029"/><rect x="42" y="56" width="11" height="11" rx="2" fill="#26a641" opacity="0.6763529242825395"/><rect x="56" y="56" width="11" height="11" rx="2" fill="#0e4429" opacity="0.1"/><rect x="70" y="56" width="11" height="11" rx="2" fill="#39d353" opacity="0.9831095106780465"/><rect x="84" y="56" width="11" height="11" rx="2" fill="#0e4429" opacity="0.17310068717569171"/><rect x="98" y="56" width="11" height="11" rx="2" fill="#26a641" opacity="0.5179682166285056"/><rect x="112" y="56" width="11" height="11" rx="2" fill="#26a641" opacity="0.5074135256805701"/><rect x="126" y="56" width="11" height="11" rx="2" fill="#006d32" opacity="0.4528787688242666"/><rect x="140" y="56" width="11" height="11" rx="2" fill="#39d353" opacity="0.9241669320550414"/><rect x="154" y="56" width="11" height="11" rx="2" fill="#0e4429" opacity="0.1"/><rect x="168" y="56" width="11" height="11" rx="2" fill="#26a641" opacity="0.6371041889481857"/><rect x="182" y="56" width="11" height="11" rx="2" fill="#006d32" opacity="0.4748457515666442"/><rect x="196" y="56" width="11" height="11" rx="2" fill="#39d353" opacity="0.9008147996166684"/><rect x="210" y="56" width="11" height="11" rx="2" fill="#006d32" opacity="0.382107018851894"/><rect x="224" y="56" width="11" height="11" rx="2" fill="#006d32" opacity="0.47967684153688417"/><rect x="238" y="56" width="11" height="11" rx="2" fill="#26a641" opacity="0.6877113185183727"/><rect x="252" y="56" width="11" height="11" rx="2" fill="#0e4429" opacity="0.1"/><rect x="266" y="56" width="11" height="11" rx="2" fill="#006d32" opacity="0.34749662578540796"/><rect x="280" y="56" width="11" height="11" rx="2" fill="#006d32" opacity="0.30124867173607983"/><rect x="294" y="56" width="11" height="11" rx="2" fill="#39d353" opacity="0.7403372118380693"/><rect x="308" y="56" width="11" height="11" rx="2" fill="#26a641" opacity="0.5231104444009689"/><rect x="322" y="56" width="11" height="11" rx="2" fill="#26a641" opacity="0.5227529694076538"/><rect x="336" y="56" width="11" height="11" rx="2" fill="#39d353" opacity="0.8920951952930691"/><rect x="350" y="56" width="11" height="11" rx="2" fill="#39d353" opacity="0.8898037087517943"/><rect x="364" y="56" width="11" height="11" rx="2" fill="#39d353" opacity="0.9360804446196265"/><rect x="378" y="56" width="11" height="11" rx="2" fill="#26a641" opacity="0.6385051827488688"/><rect x="392" y="56" width="11" height="11" rx="2" fill="#0e4429" opacity="0.1"/><rect x="406" y="56" width="11" height="11" rx="2" fill="#26a641" opacity="0.5646301754559857"/><rect x="420" y="56" width="11" height="11" rx="2" fill="#0e4429" opacity="0.1"/><rect x="434" y="56" width="11" height="11" rx="2" fill="#39d353" opacity="0.8518927480715486"/><rect x="448" y="56" width="11" height="11" rx="2" fill="#0e4429" opacity="0.1"/><rect x="462" y="56" width="11" height="11" rx="2" fill="#26a641" opacity="0.6088913799970348"/><rect x="476" y="56" width="11" height="11" rx="2" fill="#39d353" opacity="0.9079761965527751"/><rect x="490" y="56" width="11" height="11" rx="2" fill="#39d353" opacity="0.8730139345507293"/><rect x="504" y="56" width="11" height="11" rx="2" fill="#006d32" opacity="0.3523798497508106"/><rect x="518" y="56" width="11" height="11" rx="2" fill="#006d32" opacity="0.3817143314227207"/><rect x="532" y="56" width="11" height="11" rx="2" fill="#26a641" opacity="0.5039295826792178"/><rect x="546" y="56" width="11" height="11" rx="2" fill="#006d32" opacity="0.37392422510413126"/><rect x="0" y="70" width="11" height="11" rx="2" fill="#26a641" opacity="0.6158739640695625"/><rect x="14" y="70" width="11" height="11" rx="2" fill="#39d353" opacity="0.8592842937996101"/><rect x="28" y="70" width="11" height="11" rx="2" fill="#39d353" opacity="0.7360331985390498"/><rect x="42" y="70" width="11" height="11" rx="2" fill="#39d353" opacity="0.9197900951290536"/><rect x="56" y="70" width="11" height="11" rx="2" fill="#39d353" opacity="0.7824749496278001"/><rect x="70" y="70" width="11" height="11" rx="2" fill="#39d353" opacity="0.8909027311987645"/><rect x="84" y="70" width="11" height="11" rx="2" fill="#006d32" opacity="0.43567159948416756"/><rect x="98" y="70" width="11" height="11" rx="2" fill="#39d353" opacity="0.8503932143376323"/><rect x="112" y="70" width="11" height="11" rx="2" fill="#39d353" opacity="0.9595686512136832"/><rect x="126" y="70" width="11" height="11" rx="2" fill="#39d353" opacity="0.8911081291929257"/><rect x="140" y="70" width="11" height="11" rx="2" fill="#0e4429" opacity="0.186258940999789"/><rect x="154" y="70" width="11" height="11" rx="2" fill="#26a641" opacity="0.6039594789843974"/><rect x="168" y="70" width="11" height="11" rx="2" fill="#0e4429" opacity="0.2583302217863912"/><rect x="182" y="70" width="11" height="11" rx="2" fill="#006d32" opacity="0.3515329962875029"/><rect x="196" y="70" width="11" height="11" rx="2" fill="#39d353" opacity="0.8836705656281856"/><rect x="210" y="70" width="11" height="11" rx="2" fill="#39d353" opacity="0.7384752066768749"/><rect x="224" y="70" width="11" height="11" rx="2" fill="#26a641" opacity="0.5763500690210308"/><rect x="238" y="70" width="11" height="11" rx="2" fill="#26a641" opacity="0.5218627057616319"/><rect x="252" y="70" width="11" height="11" rx="2" fill="#26a641" opacity="0.5988963317398157"/><rect x="266" y="70" width="11" height="11" rx="2" fill="#26a641" opacity="0.6390002664921144"/><rect x="280" y="70" width="11" height="11" rx="2" fill="#006d32" opacity="0.40722719697231136"/><rect x="294" y="70" width="11" height="11" rx="2" fill="#006d32" opacity="0.3874160838174239"/><rect x="308" y="70" width="11" height="11" rx="2" fill="#0e4429" opacity="0.2031566200015371"/><rect x="322" y="70" width="11" height="11" rx="2" fill="#0e4429" opacity="0.21964757846825766"/><rect x="336" y="70" width="11" height="11" rx="2" fill="#0e4429" opacity="0.1"/><rect x="350" y="70" width="11" height="11" rx="2" fill="#26a641" opacity="0.6413208918981312"/><rect x="364" y="70" width="11" height="11" rx="2" fill="#0e4429" opacity="0.1975386863699391"/><rect x="378" y="70" width="11" height="11" rx="2" fill="#006d32" opacity="0.49255572661801184"/><rect x="392" y="70" width="11" height="11" rx="2" fill="#39d353" opacity="0.7223883813268466"/><rect x="406" y="70" width="11" height="11" rx="2" fill="#0e4429" opacity="0.1"/><rect x="420" y="70" width="11" height="11" rx="2" fill="#26a641" opacity="0.5452219438937738"/><rect x="434" y="70" width="11" height="11" rx="2" fill="#0e4429" opacity="0.1"/><rect x="448" y="70" width="11" height="11" rx="2" fill="#0e4429" opacity="0.1"/><rect x="462" y="70" width="11" height="11" rx="2" fill="#006d32" opacity="0.37626377642514375"/><rect x="476" y="70" width="11" height="11" rx="2" fill="#006d32" opacity="0.43906547975811727"/><rect x="490" y="70" width="11" height="11" rx="2" fill="#26a641" opacity="0.517612526524345"/><rect x="504" y="70" width="11" height="11" rx="2" fill="#0e4429" opacity="0.1"/><rect x="518" y="70" width="11" height="11" rx="2" fill="#39d353" opacity="0.8965100576183875"/><rect x="532" y="70" width="11" height="11" rx="2" fill="#39d353" opacity="0.7661924593404001"/><rect x="546" y="70" width="11" height="11" rx="2" fill="#26a641" opacity="0.6791067777621682"/><rect x="0" y="84" width="11" height="11" rx="2" fill="#0e4429" opacity="0.1"/><rect x="14" y="84" width="11" height="11" rx="2" fill="#39d353" opacity="0.9517914370333858"/><rect x="28" y="84" width="11" height="11" rx="2" fill="#006d32" opacity="0.33587488321029735"/><rect x="42" y="84" width="11" height="11" rx="2" fill="#39d353" opacity="0.705026158218437"/><rect x="56" y="84" width="11" height="11" rx="2" fill="#006d32" opacity="0.48846180576373754"/><rect x="70" y="84" width="11" height="11" rx="2" fill="#0e4429" opacity="0.261006420315373"/><rect x="84" y="84" width="11" height="11" rx="2" fill="#26a641" opacity="0.6526168104237433"/><rect x="98" y="84" width="11" height="11" rx="2" fill="#0e4429" opacity="0.1"/><rect x="112" y="84" width="11" height="11" rx="2" fill="#39d353" opacity="0.8164985769617044"/><rect x="126" y="84" width="11" height="11" rx="2" fill="#39d353" opacity="0.8328731118327526"/><rect x="140" y="84" width="11" height="11" rx="2" fill="#26a641" opacity="0.6007809182590758"/><rect x="154" y="84" width="11" height="11" rx="2" fill="#39d353" opacity="0.7488158882072795"/><rect x="168" y="84" width="11" height="11" rx="2" fill="#26a641" opacity="0.5768358362060058"/><rect x="182" y="84" width="11" height="11" rx="2" fill="#39d353" opacity="0.9434616405619856"/><rect x="196" y="84" width="11" height="11" rx="2" fill="#0e4429" opacity="0.2114806566652967"/><rect x="210" y="84" width="11" height="11" rx="2" fill="#26a641" opacity="0.5507098787313278"/><rect x="224" y="84" width="11" height="11" rx="2" fill="#26a641" opacity="0.6297057868374869"/><rect x="238" y="84" width="11" height="11" rx="2" fill="#39d353" opacity="0.9584442828489048"/><rect x="252" y="84" width="11" height="11" rx="2" fill="#0e4429" opacity="0.1"/><rect x="266" y="84" width="11" height="11" rx="2" fill="#006d32" opacity="0.4750871189083208"/><rect x="280" y="84" width="11" height="11" rx="2" fill="#006d32" opacity="0.495621092863052"/><rect x="294" y="84" width="11" height="11" rx="2" fill="#26a641" opacity="0.5587328115786336"/><rect x="308" y="84" width="11" height="11" rx="2" fill="#26a641" opacity="0.6116687569268693"/><rect x="322" y="84" width="11" height="11" rx="2" fill="#0e4429" opacity="0.18752874602549507"/><rect x="336" y="84" width="11" height="11" rx="2" fill="#0e4429" opacity="0.1"/><rect x="350" y="84" width="11" height="11" rx="2" fill="#39d353" opacity="0.9394356978138991"/><rect x="364" y="84" width="11" height="11" rx="2" fill="#006d32" opacity="0.4830791376544876"/><rect x="378" y="84" width="11" height="11" rx="2" fill="#39d353" opacity="0.7605575664900637"/><rect x="392" y="84" width="11" height="11" rx="2" fill="#006d32" opacity="0.3798938804976655"/><rect x="406" y="84" width="11" height="11" rx="2" fill="#26a641" opacity="0.6213351772109712"/><rect x="420" y="84" width="11" height="11" rx="2" fill="#26a641" opacity="0.5467424940875683"/><rect x="434" y="84" width="11" height="11" rx="2" fill="#39d353" opacity="0.7122617525424284"/><rect x="448" y="84" width="11" height="11" rx="2" fill="#39d353" opacity="0.7285928163410655"/><rect x="462" y="84" width="11" height="11" rx="2" fill="#26a641" opacity="0.6041323647289909"/><rect x="476" y="84" width="11" height="11" rx="2" fill="#006d32" opacity="0.4403056281638178"/><rect x="490" y="84" width="11" height="11" rx="2" fill="#0e4429" opacity="0.2788141581688546"/><rect x="504" y="84" width="11" height="11" rx="2" fill="#006d32" opacity="0.38643864785669746"/><rect x="518" y="84" width="11" height="11" rx="2" fill="#26a641" opacity="0.5911057828331983"/><rect x="532" y="84" width="11" height="11" rx="2" fill="#39d353" opacity="0.9849787995207828"/><rect x="546" y="84" width="11" height="11" rx="2" fill="#39d353" opacity="0.8937260581845543"/>
  </g>
  <!-- Footer -->
  <text x="80" y="590" font-family="Helvetica Neue, Arial, sans-serif" font-size="13" fill="#475569">cockpit.rapold.io</text>
  <text x="1120" y="590" font-family="Helvetica Neue, Arial, sans-serif" font-size="13" fill="#475569" text-anchor="end">github.com/marcelrapold/cockpit</text>
</svg>