<svg xmlns="http://www.w3.org/2000/svg" width="1200" height="630" viewBox="0 0 1200 630">
  <defs>
    <linearGradient id="bg" x1="0%" y1="0%" x2="100%" y2="100%">
      <stop offset="0%" style="stop-color:#003366"/>
      <stop offset="100%" style="stop-color:#005093"/>
    </linearGradient>
    <linearGradient id="accent" x1="0%" y1="0%" x2="100%" y2="0%">
      <stop offset="0%" style="stop-color:#00a5e5"/>
      <stop offset="100%" style="stop-color:#0479cc"/>
    </linearGradient>
  </defs>
  <rect width="1200" height="630" fill="url(#bg)"/>
  <!-- Grid pattern -->
  <g opacity="0.04" stroke="#fff" stroke-width="0.5">
    <line x1="0" y1="0" x2="0" y2="630"/><line x1="42" y1="0" x2="42" y2="630"/><line x1="84" y1="0" x2="84" y2="630"/><line x1="126" y1="0" x2="126" y2="630"/><line x1="168" y1="0" x2="168" y2="630"/><line x1="210" y1="0" x2="210" y2="630"/><line x1="252" y1="0" x2="252" y2="630"/><line x1="294" y1="0" x2="294" y2="630"/><line x1="336" y1="0" x2="336" y2="630"/><line x1="378" y1="0" x2="378" y2="630"/><line x1="420" y1="0" x2="420" y2="630"/><line x1="462" y1="0" x2="462" y2="630"/><line x1="504" y1="0" x2="504" y2="630"/><line x1="546" y1="0" x2="546" y2="630"/><line x1="588" y1="0" x2="588" y2="630"/><line x1="630" y1="0" x2="630" y2="630"/><line x1="672" y1="0" x2="672" y2="630"/><line x1="714" y1="0" x2="714" y2="630"/><line x1="756" y1="0" x2="756" y2="630"/><line x1="798" y1="0" x2="798" y2="630"/><line x1="840" y1="0" x2="840" y2="630"/><line x1="882" y1="0" x2="882" y2="630"/><line x1="924" y1="0" x2="924" y2="630"/><line x1="966" y1="0" x2="966" y2="630"/><line x1="1008" y1="0" x2="1008" y2="630"/><line x1="1050" y1="0" x2="1050" y2="630"/><line x1="1092" y1="0" x2="1092" y2="630"/><line x1="1134" y1="0" x2="1134" y2="630"/><line x1="1176" y1="0" x2="1176" y2="630"/><line x1="1218" y1="0" x2="1218" y2="630"/>
    <line x1="0" y1="0" x2="1200" y2="0"/><line x1="0" y1="42" x2="1200" y2="42"/><line x1="0" y1="84" x2="1200" y2="84"/><line x1="0" y1="126" x2="1200" y2="126"/><line x1="0" y1="168" x2="1200" y2="168"/><line x1="0" y1="210" x2="1200" y2="210"/><line x1="0" y1="252" x2="1200" y2="252"/><line x1="0" y1="294" x2="1200" y2="294"/><line x1="0" y1="336" x2="1200" y2="336"/><line x1="0" y1="378" x2="1200" y2="378"/><line x1="0" y1="420" x2="1200" y2="420"/><line x1="0" y1="462" x2="1200" y2="462"/><line x1="0" y1="504" x2="1200" y2="504"/><line x1="0" y1="546" x2="1200" y2="546"/><line x1="0" y1="588" x2="1200" y2="588"/><line x1="0" y1="630" x2="1200" y2="630"/>
  </g>
  <!-- Accent bar -->
  <rect x="0" y="0" width="6" height="630" fill="url(#accent)"/>
  <!-- ZVV Badge -->
  <rect x="80" y="60" width="64" height="28" rx="4" fill="#00a5e5"/>
  <text x="112" y="80" font-family="Helvetica Neue, Arial, sans-serif" font-size="14" font-weight="700" fill="#fff" text-anchor="middle">ZVV</text>
  <!-- Title -->
  <text x="80" y="145" font-family="Helvetica Neue, Arial, sans-serif" font-size="52" font-weight="700" fill="#ffffff">Workload-Portfolio</text>
  <!-- Subtitle -->
  <text x="80" y="190" font-family="Helvetica Neue, Arial, sans-serif" font-size="22" fill="#94a3b8">Marcel Rapold — ICT Entwicklung &amp; Betrieb</text>
  <!-- Divider -->
  <rect x="80" y="220" width="120" height="3" rx="1.5" fill="#00a5e5"/>
  <!-- KPIs -->
  <g font-family="Helvetica Neue, Arial, sans-serif" fill="#ffffff">
    <text x="80" y="290" font-size="44" font-weight="700">26</text>
    <text x="80" y="315" font-size="14" fill="#64748b">Initiativen</text>
    <text x="260" y="290" font-size="44" font-weight="700">2'338</text>
    <text x="260" y="315" font-size="14" fill="#64748b">Commits</text>
    <text x="480" y="290" font-size="44" font-weight="700">~280 PT</text>
    <text x="480" y="315" font-size="14" fill="#64748b">Jahresaufwand</text>
    <text x="720" y="290" font-size="44" font-weight="700">14</text>
    <text x="720" y="315" font-size="14" fill="#64748b">Produktiv</text>
  </g>
  <!-- Mini heatmap visualization -->
  <g transform="translate(80, 370)">
    <rect x="0" y="0" width="11" height="11" rx="2" fill="#39d353" opacity="0.7410509055680679"/><rect x="14" y="0" width="11" height="11" rx="2" fill="#39d353" opacity="0.9348746327150248"/><rect x="28" y="0" width="11" height="11" rx="2" fill="#0e4429" opacity="0.2041533471296988"/><rect x="42" y="0" width="11" height="11" rx="2" fill="#39d353" opacity="0.9974316527501985"/><rect x="56" y="0" width="11" height="11" rx="2" fill="#006d32" opacity="0.4528464940250405"/><rect x="70" y="0" width="11" height="11" rx="2" fill="#26a641" opacity="0.6263690203849075"/><rect x="84" y="0" width="11" height="11" rx="2" fill="#39d353" opacity="0.7883653763678844"/><rect x="98" y="0" width="11" height="11" rx="2" fill="#26a641" opacity="0.5721646528449853"/><rect x="112" y="0" width="11" height="11" rx="2" fill="#39d353" opacity="0.8563155534727911"/><rect x="126" y="0" width="11" height="11" rx="2" fill="#0e4429" opacity="0.2667819322194338"/><rect x="140" y="0" width="11" height="11" rx="2" fill="#39d353" opacity="0.7885855839637947"/><rect x="154" y="0" width="11" height="11" rx="2" fill="#006d32" opacity="0.40205561149599234"/><rect x="168" y="0" width="11" height="11" rx="2" fill="#006d32" opacity="0.31736028110652437"/><rect x="182" y="0" width="11" height="11" rx="2" fill="#0e4429" opacity="0.1"/><rect x="196" y="0" width="11" height="11" rx="2" fill="#39d353" opacity="0.8082567153191182"/><rect x="210" y="0" width="11" height="11" rx="2" fill="#26a641" opacity="0.5109421519944481"/><rect x="224" y="0" width="11" height="11" rx="2" fill="#39d353" opacity="0.9634859238355409"/><rect x="238" y="0" width="11" height="11" rx="2" fill="#0e4429" opacity="0.22097543486594318"/><rect x="252" y="0" width="11" height="11" rx="2" fill="#39d353" opacity="0.8921711641958769"/><rect x="266" y="0" width="11" height="11" rx="2" fill="#39d353" opacity="0.8180804315949968"/><rect x="280" y="0" width="11" height="11" rx="2" fill="#0e4429" opacity="0.1"/><rect x="294" y="0" width="11" height="11" rx="2" fill="#006d32" opacity="0.4059065093041545"/><rect x="308" y="0" width="11" height="11" rx="2" fill="#39d353" opacity="0.8391298730350991"/><rect x="322" y="0" width="11" height="11" rx="2" fill="#006d32" opacity="0.48553905517538865"/><rect x="336" y="0" width="11" height="11" rx="2" fill="#26a641" opacity="0.6187156685501627"/><rect x="350" y="0" width="11" height="11" rx="2" fill="#26a641" opacity="0.667327676430221"/><rect x="364" y="0" width="11" height="11" rx="2" fill="#0e4429" opacity="0.1"/><rect x="378" y="0" width="11" height="11" rx="2" fill="#0e4429" opacity="0.2979246362162893"/><rect x="392" y="0" width="11" height="11" rx="2" fill="#0e4429" opacity="0.19985203695307763"/><rect x="406" y="0" width="11" height="11" rx="2" fill="#26a641" opacity="0.52013659211455"/><rect x="420" y="0" width="11" height="11" rx="2" fill="#26a641" opacity="0.578015225922615"/><rect x="434" y="0" width="11" height="11" rx="2" fill="#26a641" opacity="0.5981775000641953"/><rect x="448" y="0" width="11" height="11" rx="2" fill="#26a641" opacity="0.6777015513057116"/><rect x="462" y="0" width="11" height="11" rx="2" fill="#006d32" opacity="0.33064989791195787"/><rect x="476" y="0" width="11" height="11" rx="2" fill="#39d353" opacity="0.8258480032420374"/><rect x="490" y="0" width="11" height="11" rx="2" fill="#006d32" opacity="0.42325960639073346"/><rect x="504" y="0" width="11" height="11" rx="2" fill="#26a641" opacity="0.5728631231887416"/><rect x="518" y="0" width="11" height="11" rx="2" fill="#39d353" opacity="0.7425836626864304"/><rect x="532" y="0" width="11" height="11" rx="2" fill="#006d32" opacity="0.34319001221868706"/><rect x="546" y="0" width="11" height="11" rx="2" fill="#0e4429" opacity="0.1"/><rect x="0" y="14" width="11" height="11" rx="2" fill="#0e4429" opacity="0.1"/><rect x="14" y="14" width="11" height="11" rx="2" fill="#006d32" opacity="0.4125491936303327"/><rect x="28" y="14" width="11" height="11" rx="2" fill="#39d353" opacity="0.8991202720813511"/><rect x="42" y="14" width="11" height="11" rx="2" fill="#39d353" opacity="0.8219587047856911"/><rect x="56" y="14" width="11" height="11" rx="2" fill="#0e4429" opacity="0.23272419712992365"/><rect x="70" y="14" width="11" height="11" rx="2" fill="#26a641" opacity="0.607734137411517"/><rect x="84" y="14" width="11" height="11" rx="2" fill="#39d353" opacity="0.9293275242373387"/><rect x="98" y="14" width="11" height="11" rx="2" fill="#006d32" opacity="0.45632696276514273"/><rect x="112" y="14" width="11" height="11" rx="2" fill="#006d32" opacity="0.38426041389015997"/><rect x="126" y="14" width="11" height="11" rx="2" fill="#26a641" opacity="0.6550582280594155"/><rect x="140" y="14" width="11" height="11" rx="2" fill="#39d353" opacity="0.9715080546950801"/><rect x="154" y="14" width="11" height="11" rx="2" fill="#006d32" opacity="0.4748770178202968"/><rect x="168" y="14" width="11" height="11" rx="2" fill="#006d32" opacity="0.4811774464532965"/><rect x="182" y="14" width="11" height="11" rx="2" fill="#39d353" opacity="0.7023001543530796"/><rect x="196" y="14" width="11" height="11" rx="2" fill="#39d353" opacity="0.9362349693164767"/><rect x="210" y="14" width="11" height="11" rx="2" fill="#006d32" opacity="0.47887195970472907"/><rect x="224" y="14" width="11" height="11" rx="2" fill="#26a641" opacity="0.610777024823467"/><rect x="238" y="14" width="11" height="11" rx="2" fill="#006d32" opacity="0.496998262576285"/><rect x="252" y="14" width="11" height="11" rx="2" fill="#006d32" opacity="0.35066947091705436"/><rect x="266" y="14" width="11" height="11" rx="2" fill="#0e4429" opacity="0.2071518991029182"/><rect x="280" y="14" width="11" height="11" rx="2" fill="#39d353" opacity="0.8643797270585363"/><rect x="294" y="14" width="11" height="11" rx="2" fill="#006d32" opacity="0.3065465270659906"/><rect x="308" y="14" width="11" height="11" rx="2" fill="#006d32" opacity="0.3040827358604197"/><rect x="322" y="14" width="11" height="11" rx="2" fill="#0e4429" opacity="0.1"/><rect x="336" y="14" width="11" height="11" rx="2" fill="#0e4429" opacity="0.24106094416971002"/><rect x="350" y="14" width="11" height="11" rx="2" fill="#39d353" opacity="0.9414577478601427"/><rect x="364" y="14" width="11" height="11" rx="2" fill="#39d353" opacity="0.8105713143968962"/><rect x="378" y="14" width="11" height="11" rx="2" fill="#39d353" opacity="0.9094891354154493"/><rect x="392" y="14" width="11" height="11" rx="2" fill="#26a641" opacity="0.6167391215991762"/><rect x="406" y="14" width="11" height="11" rx="2" fill="#0e4429" opacity="0.1"/><rect x="420" y="14" width="11" height="11" rx="2" fill="#006d32" opacity="0.461641546048859"/><rect x="434" y="14" width="11" height="11" rx="2" fill="#006d32" opacity="0.3870267912684713"/><rect x="448" y="14" width="11" height="11" rx="2" fill="#39d353" opacity="0.8822227664700262"/><rect x="462" y="14" width="11" height="11" rx="2" fill="#39d353" opacity="0.7444024367068838"/><rect x="476" y="14" width="11" height="11" rx="2" fill="#26a641" opacity="0.6783560453348227"/><rect x="490" y="14" width="11" height="11" rx="2" fill="#0e4429" opacity="0.1"/><rect x="504" y="14" width="11" height="11" rx="2" fill="#39d353" opacity="0.9159776371152661"/><rect x="518" y="14" width="11" height="11" rx="2" fill="#0e4429" opacity="0.1"/><rect x="532" y="14" width="11" height="11" rx="2" fill="#39d353" opacity="0.8088237206990507"/><rect x="546" y="14" width="11" height="11" rx="2" fill="#39d353" opacity="0.7268598611667547"/><rect x="0" y="28" width="11" height="11" rx="2" fill="#39d353" opacity="0.8407339612713489"/><rect x="14" y="28" width="11" height="11" rx="2" fill="#26a641" opacity="0.6570002758384599"/><rect x="28" y="28" width="11" height="11" rx="2" fill="#26a641" opacity="0.6671912473507915"/><rect x="42" y="28" width="11" height="11" rx="2" fill="#26a641" opacity="0.5064298526144912"/><rect x="56" y="28" width="11" height="11" rx="2" fill="#39d353" opacity="0.9627355174700973"/><rect x="70" y="28" width="11" height="11" rx="2" fill="#39d353" opacity="0.7925877260123149"/><rect x="84" y="28" width="11" height="11" rx="2" fill="#0e4429" opacity="0.18647957741618337"/><rect x="98" y="28" width="11" height="11" rx="2" fill="#0e4429" opacity="0.1"/><rect x="112" y="28" width="11" height="11" rx="2" fill="#0e4429" opacity="0.2778113387707546"/><rect x="126" y="28" width="11" height="11" rx="2" fill="#006d32" opacity="0.3963993945985822"/><rect x="140" y="28" width="11" height="11" rx="2" fill="#39d353" opacity="0.8597834103240434"/><rect x="154" y="28" width="11" height="11" rx="2" fill="#26a641" opacity="0.6935576242032024"/><rect x="168" y="28" width="11" height="11" rx="2" fill="#39d353" opacity="0.9533653974536536"/><rect x="182" y="28" width="11" height="11" rx="2" fill="#39d353" opacity="0.9892286922496016"/><rect x="196" y="28" width="11" height="11" rx="2" fill="#39d353" opacity="0.9767137706371258"/><rect x="210" y="28" width="11" height="11" rx="2" fill="#26a641" opacity="0.5975721626555244"/><rect x="224" y="28" width="11" height="11" rx="2" fill="#0e4429" opacity="0.21029190306959689"/><rect x="238" y="28" width="11" height="11" rx="2" fill="#39d353" opacity="0.8646199034849495"/><rect x="252" y="28" width="11" height="11" rx="2" fill="#0e4429" opacity="0.1"/><rect x="266" y="28" width="11" height="11" rx="2" fill="#26a641" opacity="0.6978866225695528"/><rect x="280" y="28" width="11" height="11" rx="2" fill="#39d353" opacity="0.7688436916309356"/><rect x="294" y="28" width="11" height="11" rx="2" fill="#39d353" opacity="0.7857755121420684"/><rect x="308" y="28" width="11" height="11" rx="2" fill="#0e4429" opacity="0.23618903083207576"/><rect x="322" y="28" width="11" height="11" rx="2" fill="#0e4429" opacity="0.15379069093772624"/><rect x="336" y="28" width="11" height="11" rx="2" fill="#39d353" opacity="0.8913869853601257"/><rect x="350" y="28" width="11" height="11" rx="2" fill="#26a641" opacity="0.6033797678979154"/><rect x="364" y="28" width="11" height="11" rx="2" fill="#26a641" opacity="0.5620145730916282"/><rect x="378" y="28" width="11" height="11" rx="2" fill="#006d32" opacity="0.44665460649555255"/><rect x="392" y="28" width="11" height="11" rx="2" fill="#006d32" opacity="0.3592233239936222"/><rect x="406" y="28" width="11" height="11" rx="2" fill="#0e4429" opacity="0.21179749052989982"/><rect x="420" y="28" width="11" height="11" rx="2" fill="#26a641" opacity="0.6787081660908434"/><rect x="434" y="28" width="11" height="11" rx="2" fill="#39d353" opacity="0.9461389080132143"/><rect x="448" y="28" width="11" height="11" rx="2" fill="#39d353" opacity="0.7086471220831319"/><rect x="462" y="28" width="11" height="11" rx="2" fill="#0e4429" opacity="0.1"/><rect x="476" y="28" width="11" height="11" rx="2" fill="#0e4429" opacity="0.1"/><rect x="490" y="28" width="11" height="11" rx="2" fill="#0e4429" opacity="0.19497717200553266"/><rect x="504" y="28" width="11" height="11" rx="2" fill="#39d353" opacity="0.9394442756787573"/><rect x="518" y="28" width="11" height="11" rx="2" fill="#39d353" opacity="0.7567328215449389"/><rect x="532" y="28" width="11" height="11" rx="2" fill="#39d353" opacity="0.9100493012205171"/><rect x="546" y="28" width="11" height="11" rx="2" fill="#26a641" opacity="0.6377068208550314"/><rect x="0" y="42" width="11" height="11" rx="2" fill="#39d353" opacity="0.8013755709960886"/><rect x="14" y="42" width="11" height="11" rx="2" fill="#39d353" opacity="0.8012829587221713"/><rect x="28" y="42" width="11" height="11" rx="2" fill="#006d32" opacity="0.34190170071233306"/><rect x="42" y="42" width="11" height="11" rx="2" fill="#26a641" opacity="0.5348955477977066"/><rect x="56" y="42" width="11" height="11" rx="2" fill="#006d32" opacity="0.4244855287312139"/><rect x="70" y="42" width="11" height="11" rx="2" fill="#0e4429" opacity="0.15955207339341992"/><rect x="84" y="42" width="11" height="11" rx="2" fill="#39d353" opacity="0.702996011599418"/><rect x="98" y="42" width="11" height="11" rx="2" fill="#26a641" opacity="0.5011149772448389"/><rect x="112" y="42" width="11" height="11" rx="2" fill="#0e4429" opacity="0.1"/><rect x="126" y="42" width="11" height="11" rx="2" fill="#0e4429" opacity="0.1"/><rect x="140" y="42" width="11" height="11" rx="2" fill="#006d32" opacity="0.48880796858030706"/><rect x="154" y="42" width="11" height="11" rx="2" fill="#0e4429" opacity="0.1"/><rect x="168" y="42" width="11" height="11" rx="2" fill="#26a641" opacity="0.6788129521464159"/><rect x="182" y="42" width="11" height="11" rx="2" fill="#39d353" opacity="0.8971225443597619"/><rect x="196" y="42" width="11" height="11" rx="2" fill="#0e4429" opacity="0.1"/><rect x="210" y="42" width="11" height="11" rx="2" fill="#0e4429" opacity="0.23647687065024825"/><rect x="224" y="42" width="11" height="11" rx="2" fill="#26a641" opacity="0.5380653928970869"/><rect x="238" y="42" width="11" height="11" rx="2" fill="#006d32" opacity="0.44694659456642616"/><rect x="252" y="42" width="11" height="11" rx="2" fill="#26a641" opacity="0.6605364469817767"/><rect x="266" y="42" width="11" height="11" rx="2" fill="#0e4429" opacity="0.1"/><rect x="280" y="42" width="11" height="11" rx="2" fill="#39d353" opacity="0.7404403824901573"/><rect x="294" y="42" width="11" height="11" rx="2" fill="#39d353" opacity="0.7086014755939507"/><rect x="308" y="42" width="11" height="11" rx="2" fill="#39d353" opacity="0.8530484226249495"/><rect x="322" y="42" width="11" height="11" rx="2" fill="#0e4429" opacity="0.1"/><rect x="336" y="42" width="11" height="11" rx="2" fill="#39d353" opacity="0.7387579023029696"/><rect x="350" y="42" width="11" height="11" rx="2" fill="#26a641" opacity="0.5086298190617586"/><rect x="364" y="42" width="11" height="11" rx="2" fill="#0e4429" opacity="0.1"/><rect x="378" y="42" width="11" height="11" rx="2" fill="#006d32" opacity="0.49923346646621414"/><rect x="392" y="42" width="11" height="11" rx="2" fill="#39d353" opacity="0.9033660575265905"/><rect x="406" y="42" width="11" height="11" rx="2" fill="#0e4429" opacity="0.2777035085471413"/><rect x="420" y="42" width="11" height="11" rx="2" fill="#0e4429" opacity="0.2991906314909807"/><rect x="434" y="42" width="11" height="11" rx="2" fill="#006d32" opacity="0.42226963099082204"/><rect x="448" y="42" width="11" height="11" rx="2" fill="#0e4429" opacity="0.19093049337765966"/><rect x="462" y="42" width="11" height="11" rx="2" fill="#39d353" opacity="0.8202596367439803"/><rect x="476" y="42" width="11" height="11" rx="2" fill="#39d353" opacity="0.816168569923831"/><rect x="490" y="42" width="11" height="11" rx="2" fill="#006d32" opacity="0.3840210900012908"/><rect x="504" y="42" width="11" height="11" rx="2" fill="#0e4429" opacity="0.1925702709473347"/><rect x="518" y="42" width="11" height="11" rx="2" fill="#26a641" opacity="0.5094275257625036"/><rect x="532" y="42" width="11" height="11" rx="2" fill="#0e4429" opacity="0.17998428513001952"/><rect x="546" y="42" width="11" height="11" rx="2" fill="#39d353" opacity="0.8826790217093659"/><rect x="0" y="56" width="11" height="11" rx="2" fill="#26a641" opacity="0.6084728632717198"/><rect x="14" y="56" width="11" height="11" rx="2" fill="#0e4429" opacity="0.1"/><rect x="28" y="56" width="11" height="11" rx="2" fill="#26a641" opacity="0.5629776767307761"/><rect x="42" y="56" width="11" height="11" rx="2" fill="#39d353" opacity="0.9664994954937396"/><rect x="56" y="56" width="11" height="11" rx="2" fill="#26a641" opacity="0.6141605350610508"/><rect x="70" y="56" width="11" height="11" rx="2" fill="#0e4429" opacity="0.17321720999256285"/><rect x="84" y="56" width="11" height="11" rx="2" fill="#26a641" opacity="0.6265602191132436"/><rect x="98" y="56" width="11" height="11" rx="2" fill="#26a641" opacity="0.6885824485052643"/><rect x="112" y="56" width="11" height="11" rx="2" fill="#006d32" opacity="0.44850628215128996"/><rect x="126" y="56" width="11" height="11" rx="2" fill="#39d353" opacity="0.7013966371767213"/><rect x="140" y="56" width="11" height="11" rx="2" fill="#006d32" opacity="0.4668231861981964"/><rect x="154" y="56" width="11" height="11" rx="2" fill="#0e4429" opacity="0.26338547812038793"/><rect x="168" y="56" width="11" height="11" rx="2" fill="#26a641" opacity="0.5709882559036805"/><rect x="182" y="56" width="11" height="11" rx="2" fill="#0e4429" opacity="0.15597784085402933"/><rect x="196" y="56" width="11" height="11" rx="2" fill="#0e4429" opacity="0.2231378019163608"/><rect x="210" y="56" width="11" height="11" rx="2" fill="#006d32" opacity="0.3646773414999913"/><rect x="224" y="56" width="11" height="11" rx="2" fill="#0e4429" opacity="0.1"/><rect x="238" y="56" width="11" height="11" rx="2" fill="#0e4429" opacity="0.1"/><rect x="252" y="56" width="11" height="11" rx="2" fill="#39d353" opacity="0.9543157716753181"/><rect x="266" y="56" width="11" height="11" rx="2" fill="#39d353" opacity="0.724629802408862"/><rect x="280" y="56" width="11" height="11" rx="2" fill="#26a641" opacity="0.5628350814123171"/><rect x="294" y="56" width="11" height="11" rx="2" fill="#39d353" opacity="0.7280305120885"/><rect x="308" y="56" width="11" height="11" rx="2" fill="#39d353" opacity="0.8252067534293308"/><rect x="322" y="56" width="11" height="11" rx="2" fill="#39d353" opacity="0.8153856664969439"/><rect x="336" y="56" width="11" height="11" rx="2" fill="#39d353" opacity="0.7218987621380977"/><rect x="350" y="56" width="11" height="11" rx="2" fill="#0e4429" opacity="0.1"/><rect x="364" y="56" width="11" height="11" rx="2" fill="#39d353" opacity="0.7235145655921"/><rect x="378" y="56" width="11" height="11" rx="2" fill="#006d32" opacity="0.4150042237033933"/><rect x="392" y="56" width="11" height="11" rx="2" fill="#0e4429" opacity="0.1"/><rect x="406" y="56" width="11" height="11" rx="2" fill="#0e4429" opacity="0.15364961324772897"/><rect x="420" y="56" width="11" height="11" rx="2" fill="#39d353" opacity="0.7972032995030967"/><rect x="434" y="56" width="11" height="11" rx="2" fill="#0e4429" opacity="0.19686077215935005"/><rect x="448" y="56" width="11" height="11" rx="2" fill="#26a641" opacity="0.6387839175726022"/><rect x="462" y="56" width="11" height="11" rx="2" fill="#26a641" opacity="0.5010288485559311"/><rect x="476" y="56" width="11" height="11" rx="2" fill="#0e4429" opacity="0.1"/><rect x="490" y="56" width="11" height="11" rx="2" fill="#39d353" opacity="0.7508359285937343"/><rect x="504" y="56" width="11" height="11" rx="2" fill="#006d32" opacity="0.44313177084813127"/><rect x="518" y="56" width="11" height="11" rx="2" fill="#39d353" opacity="0.871149591294266"/><rect x="532" y="56" width="11" height="11" rx="2" fill="#006d32" opacity="0.41531583859029686"/><rect x="546" y="56" width="11" height="11" rx="2" fill="#39d353" opacity="0.9470258090324919"/><rect x="0" y="70" width="11" height="11" rx="2" fill="#39d353" opacity="0.8522827932848973"/><rect x="14" y="70" width="11" height="11" rx="2" fill="#006d32" opacity="0.4014778503190579"/><rect x="28" y="70" width="11" height="11" rx="2" fill="#26a641" opacity="0.5558951136900849"/><rect x="42" y="70" width="11" height="11" rx="2" fill="#006d32" opacity="0.3217233097318932"/><rect x="56" y="70" width="11" height="11" rx="2" fill="#006d32" opacity="0.3034949980845323"/><rect x="70" y="70" width="11" height="11" rx="2" fill="#39d353" opacity="0.8597407061503488"/><rect x="84" y="70" width="11" height="11" rx="2" fill="#39d353" opacity="0.8297459212123839"/><rect x="98" y="70" width="11" height="11" rx="2" fill="#26a641" opacity="0.6819347920510259"/><rect x="112" y="70" width="11" height="11" rx="2" fill="#0e4429" opacity="0.17986480377088454"/><rect x="126" y="70" width="11" height="11" rx="2" fill="#39d353" opacity="0.9857570513887264"/><rect x="140" y="70" width="11" height="11" rx="2" fill="#0e4429" opacity="0.1"/><rect x="154" y="70" width="11" height="11" rx="2" fill="#006d32" opacity="0.34179398269108563"/><rect x="168" y="70" width="11" height="11" rx="2" fill="#0e4429" opacity="0.1"/><rect x="182" y="70" width="11" height="11" rx="2" fill="#006d32" opacity="0.3314902932679169"/><rect x="196" y="70" width="11" height="11" rx="2" fill="#006d32" opacity="0.4859657340365906"/><rect x="210" y="70" width="11" height="11" rx="2" fill="#0e4429" opacity="0.1"/><rect x="224" y="70" width="11" height="11" rx="2" fill="#39d353" opacity="0.8873125937229973"/><rect x="238" y="70" width="11" height="11" rx="2" fill="#0e4429" opacity="0.1"/><rect x="252" y="70" width="11" height="11" rx="2" fill="#39d353" opacity="0.944176579216633"/><rect x="266" y="70" width="11" height="11" rx="2" fill="#0e4429" opacity="0.16435503844141297"/><rect x="280" y="70" width="11" height="11" rx="2" fill="#39d353" opacity="0.9638399095729118"/><rect x="294" y="70" width="11" height="11" rx="2" fill="#39d353" opacity="0.9847761544937834"/><rect x="308" y="70" width="11" height="11" rx="2" fill="#0e4429" opacity="0.1"/><rect x="322" y="70" width="11" height="11" rx="2" fill="#0e4429" opacity="0.1"/><rect x="336" y="70" width="11" height="11" rx="2" fill="#39d353" opacity="0.958449473317637"/><rect x="350" y="70" width="11" height="11" rx="2" fill="#0e4429" opacity="0.16741428800821767"/><rect x="364" y="70" width="11" height="11" rx="2" fill="#26a641" opacity="0.5613572970945246"/><rect x="378" y="70" width="11" height="11" rx="2" fill="#39d353" opacity="0.755855130063305"/><rect x="392" y="70" width="11" height="11" rx="2" fill="#39d353" opacity="0.8373574729040174"/><rect x="406" y="70" width="11" height="11" rx="2" fill="#39d353" opacity="0.874707792329714"/><rect x="420" y="70" width="11" height="11" rx="2" fill="#26a641" opacity="0.6380531391598729"/><rect x="434" y="70" width="11" height="11" rx="2" fill="#006d32" opacity="0.32659258652716194"/><rect x="448" y="70" width="11" height="11" rx="2" fill="#39d353" opacity="0.718392524468157"/><rect x="462" y="70" width="11" height="11" rx="2" fill="#26a641" opacity="0.6715295685465772"/><rect x="476" y="70" width="11" height="11" rx="2" fill="#006d32" opacity="0.4474106349666789"/><rect x="490" y="70" width="11" height="11" rx="2" fill="#0e4429" opacity="0.15044152731551508"/><rect x="504" y="70" width="11" height="11" rx="2" fill="#26a641" opacity="0.6494824822557688"/><rect x="518" y="70" width="11" height="11" rx="2" fill="#39d353" opacity="0.8297169602869514"/><rect x="532" y="70" width="11" height="11" rx="2" fill="#39d353" opacity="0.799819558358529"/><rect x="546" y="70" width="11" height="11" rx="2" fill="#39d353" opacity="0.8749317858949313"/><rect x="0" y="84" width="11" height="11" rx="2" fill="#006d32" opacity="0.46561961064014357"/><rect x="14" y="84" width="11" height="11" rx="2" fill="#26a641" opacity="0.5703901326271341"/><rect x="28" y="84" width="11" height="11" rx="2" fill="#39d353" opacity="0.703718938430602"/><rect x="42" y="84" width="11" height="11" rx="2" fill="#26a641" opacity="0.51589603824353"/><rect x="56" y="84" width="11" height="11" rx="2" fill="#006d32" opacity="0.46426406825268396"/><rect x="70" y="84" width="11" height="11" rx="2" fill="#0e4429" opacity="0.27906485913891177"/><rect x="84" y="84" width="11" height="11" rx="2" fill="#0e4429" opacity="0.1"/><rect x="98" y="84" width="11" height="11" rx="2" fill="#39d353" opacity="0.892561400212355"/><rect x="112" y="84" width="11" height="11" rx="2" fill="#006d32" opacity="0.4585686334732646"/><rect x="126" y="84" width="11" height="11" rx="2" fill="#26a641" opacity="0.604256635377161"/><rect x="140" y="84" width="11" height="11" rx="2" fill="#39d353" opacity="0.8459533710342888"/><rect x="154" y="84" width="11" height="11" rx="2" fill="#006d32" opacity="0.32712472305619733"/><rect x="168" y="84" width="11" height="11" rx="2" fill="#006d32" opacity="0.395668617633135"/><rect x="182" y="84" width="11" height="11" rx="2" fill="#39d353" opacity="0.7836291782715206"/><rect x="196" y="84" width="11" height="11" rx="2" fill="#26a641" opacity="0.5135023811122936"/><rect x="210" y="84" width="11" height="11" rx="2" fill="#0e4429" opacity="0.1"/><rect x="224" y="84" width="11" height="11" rx="2" fill="#0e4429" opacity="0.1"/><rect x="238" y="84" width="11" height="11" rx="2" fill="#0e4429" opacity="0.1"/><rect x="252" y="84" width="11" height="11" rx="2" fill="#26a641" opacity="0.531487666784678"/><rect x="266" y="84" width="11" height="11" rx="2" fill="#0e4429" opacity="0.24668176015458498"/><rect x="280" y="84" width="11" height="11" rx="2" fill="#0e4429" opacity="0.1"/><rect x="294" y="84" width="11" height="11" rx="2" fill="#0e4429" opacity="0.1"/><rect x="308" y="84" width="11" height="11" rx="2" fill="#0e4429" opacity="0.26902786776235166"/><rect x="322" y="84" width="11" height="11" rx="2" fill="#39d353" opacity="0.9003660294386591"/><rect x="336" y="84" width="11" height="11" rx="2" fill="#006d32" opacity="0.369004248099823"/><rect x="350" y="84" width="11" height="11" rx="2" fill="#39d353" opacity="0.737730624537752"/><rect x="364" y="84" width="11" height="11" rx="2" fill="#39d353" opacity="0.7619809069396608"/><rect x="378" y="84" width="11" height="11" rx="2" fill="#26a641" opacity="0.5050102465368296"/><rect x="392" y="84" width="11" height="11" rx="2" fill="#26a641" opacity="0.5002962063485881"/><rect x="406" y="84" width="11" height="11" rx="2" fill="#39d353" opacity="0.7836836323918801"/><rect x="420" y="84" width="11" height="11" rx="2" fill="#39d353" opacity="0.9240639973491309"/><rect x="434" y="84" width="11" height="11" rx="2" fill="#0e4429" opacity="0.2130016175058016"/><rect x="448" y="84" width="11" height="11" rx="2" fill="#39d353" opacity="0.9278291722555994"/><rect x="462" y="84" width="11" height="11" rx="2" fill="#0e4429" opacity="0.1"/><rect x="476" y="84" width="11" height="11" rx="2" fill="#39d353" opacity="0.7161176537390579"/><rect x="490" y="84" width="11" height="11" rx="2" fill="#0e4429" opacity="0.29661081782675724"/><rect x="504" y="84" width="11" height="11" rx="2" fill="#39d353" opacity="0.9139983753091283"/><rect x="518" y="84" width="11" height="11" rx="2" fill="#006d32" opacity="0.3488470294309647"/><rect x="532" y="84" width="11" height="11" rx="2" fill="#39d353" opacity="0.9423581666996985"/><rect x="546" y="84" width="11" height="11" rx="2" fill="#0e4429" opacity="0.1"/>
  </g>
  <!-- Footer -->
  <text x="80" y="590" font-family="Helvetica Neue, Arial, sans-serif" font-size="13" fill="#475569">zvv-workload-portfolio.vercel.app</text>
  <text x="1120" y="590" font-family="Helvetica Neue, Arial, sans-serif" font-size="13" fill="#475569" text-anchor="end">Zürcher Verkehrsverbund</text>
</svg>